<svg xmlns="http://www.w3.org/2000/svg" xml:space="preserve" xmlns:xlink="http://www.w3.org/1999/xlink" style="max-width: 100%;height: auto;" width="1023" height="1023" viewBox="0 0 1023 1023">
<defs><mask id="qrmask"><g fill="#ffffff"><g>
<g transform="translate(310,62) scale(5.3216666666667)"><path d="M4.6,4.6C4.6,4.6,4.6,4.6,4.6,4.6C5,4.2,5.5,4,6,4V2C5.5,2,5,1.8,4.7,1.5l0,0C4.2,1,3.7,0.8,3,0.8 c-1.2,0-2.2,1-2.2,2.2c0,0.6,0.2,1.1,0.6,1.5l0,0C1.8,4.9,2,5.4,2,6h2C4,5.5,4.2,5,4.6,4.6z"/></g>
<g transform="translate(341,62) scale(5.3216666666667)"><path d="M0.3,4.3C0.8,5.3,1.8,6,3,6s2.2-0.7,2.7-1.7C5.8,4.1,5.9,4,6,4V2C5.9,2,5.8,1.9,5.7,1.7C5.2,0.7,4.2,0,3,0 S0.8,0.7,0.3,1.7C0.2,1.9,0.1,2,0,2v2C0.1,4,0.2,4.1,0.3,4.3z"/></g>
<g transform="translate(372,62) scale(5.3216666666667)"><path d="M1.4,4.6C1.4,4.6,1.4,4.6,1.4,4.6c0.3,0.3,0.5,0.6,0.6,1C2,5.7,2,5.9,2,6h2c0-0.1,0-0.3,0-0.4 c0.1-0.4,0.3-0.7,0.5-1c0,0,0,0,0,0C5,4.2,5.5,4,6,4V2C5.5,2,5,1.8,4.7,1.5c0,0,0,0,0,0C4.2,1,3.7,0.8,3,0.8S1.8,1,1.4,1.5 c0,0,0,0,0,0C1,1.8,0.5,2,0,2v2C0.5,4,1,4.2,1.4,4.6z"/></g>
<g transform="translate(403,62) scale(5.3216666666667)"><path d="M1.4,4.6C1.4,4.6,1.4,4.6,1.4,4.6c0.3,0.3,0.5,0.6,0.6,1C2,5.7,2,5.9,2,6h2c0-0.1,0-0.3,0-0.4 c0.1-0.4,0.3-0.7,0.5-1c0,0,0,0,0,0C5,4.2,5.5,4,6,4V2C5.5,2,5,1.8,4.7,1.5c0,0,0,0,0,0C4.2,1,3.7,0.8,3,0.8S1.8,1,1.4,1.5 c0,0,0,0,0,0C1,1.8,0.5,2,0,2v2C0.5,4,1,4.2,1.4,4.6z"/></g>
<g transform="translate(434,62) scale(5.3216666666667)"><path d="M1.4,4.6C1.4,4.6,1.4,4.6,1.4,4.6C1.8,5,2,5.5,2,6h2c0-0.5,0.2-1,0.5-1.3l0,0C5,4.2,5.2,3.7,5.2,3 c0-1.2-1-2.2-2.2-2.2C2.4,0.8,1.9,1,1.5,1.4l0,0C1.1,1.8,0.6,2,0,2v2C0.5,4,1,4.2,1.4,4.6z"/></g>
<g transform="translate(527,62) scale(5.3216666666667)"><path d="M4.6,4.6C4.6,4.6,4.6,4.6,4.6,4.6C5,4.2,5.5,4,6,4V2C5.5,2,5,1.8,4.7,1.5l0,0C4.2,1,3.7,0.8,3,0.8 c-1.2,0-2.2,1-2.2,2.2c0,0.6,0.2,1.1,0.6,1.5l0,0C1.8,4.9,2,5.4,2,6h2C4,5.5,4.2,5,4.6,4.6z"/></g>
<g transform="translate(558,62) scale(5.3216666666667)"><path d="M3,5.2c1.2,0,2.2-1,2.2-2.2S4.2,0.8,3,0.8C2.4,0.8,1.8,1,1.4,1.4C1,1.8,0.5,2,0,2v2c0.5,0,1,0.2,1.4,0.6 C1.8,5,2.4,5.2,3,5.2z"/></g>
<g transform="translate(620,62) scale(5.3216666666667)"><path d="M5.2,3c0-1.2-1-2.2-2.2-2.2S0.8,1.8,0.8,3c0,0.6,0.3,1.2,0.7,1.6C1.8,5,2,5.5,2,6h2c0-0.5,0.2-1,0.6-1.4 C5,4.2,5.2,3.6,5.2,3z"/></g>
<g transform="translate(682,62) scale(5.3216666666667)"><circle cx="3" cy="3" r="3"/></g>
<g transform="translate(310,93) scale(5.3216666666667)"><path d="M4.3,5.7C5.3,5.2,6,4.2,6,3S5.3,0.8,4.3,0.3C4.1,0.2,4,0.1,4,0H2c0,0.1-0.1,0.2-0.3,0.3C0.7,0.8,0,1.8,0,3 s0.7,2.2,1.7,2.7C1.9,5.8,2,5.9,2,6h2C4,5.9,4.1,5.8,4.3,5.7z"/></g>
<g transform="translate(372,93) scale(5.3216666666667)"><path d="M4.6,1.4C4.6,1.4,4.6,1.4,4.6,1.4C4.2,1,4,0.5,4,0H2c0,0.5-0.2,1-0.5,1.3l0,0C1,1.8,0.8,2.3,0.8,3 c0,1.2,1,2.2,2.2,2.2c0.6,0,1.1-0.2,1.5-0.6l0,0C4.9,4.2,5.4,4,6,4V2C5.5,2,5,1.8,4.6,1.4z"/></g>
<g transform="translate(403,93) scale(5.3216666666667)"><path d="M4,0H2c0,1.1-0.9,2-2,2v2c1.1,0,2,0.9,2,2h2c0-1.1,0.9-2,2-2V2C4.9,2,4,1.1,4,0z"/></g>
<g transform="translate(434,93) scale(5.3216666666667)"><path d="M4.6,1.4C4.6,1.4,4.6,1.4,4.6,1.4C4.3,1.1,4.1,0.8,4,0.4C4,0.3,4,0.1,4,0H2c0,0.1,0,0.3,0,0.4 c-0.1,0.4-0.3,0.7-0.5,1c0,0,0,0,0,0C1,1.8,0.5,2,0,2v2c0.5,0,1,0.2,1.3,0.5c0,0,0,0,0,0C1.8,5,2.3,5.2,3,5.2S4.2,5,4.6,4.5 c0,0,0,0,0,0C5,4.2,5.5,4,6,4V2C5.5,2,5,1.8,4.6,1.4z"/></g>
<g transform="translate(465,93) scale(5.3216666666667)"><path d="M0.3,4.3C0.8,5.3,1.8,6,3,6s2.2-0.7,2.7-1.7C5.8,4.1,5.9,4,6,4V2C5.9,2,5.8,1.9,5.7,1.7C5.2,0.7,4.2,0,3,0 S0.8,0.7,0.3,1.7C0.2,1.9,0.1,2,0,2v2C0.1,4,0.2,4.1,0.3,4.3z"/></g>
<g transform="translate(496,93) scale(5.3216666666667)"><path d="M0.3,4.3C0.8,5.3,1.8,6,3,6s2.2-0.7,2.7-1.7C5.8,4.1,5.9,4,6,4V2C5.9,2,5.8,1.9,5.7,1.7C5.2,0.7,4.2,0,3,0 S0.8,0.7,0.3,1.7C0.2,1.9,0.1,2,0,2v2C0.1,4,0.2,4.1,0.3,4.3z"/></g>
<g transform="translate(527,93) scale(5.3216666666667)"><path d="M1.4,1.4C1.4,1.4,1.4,1.4,1.4,1.4C1,1.8,0.5,2,0,2v2c0.5,0,1,0.2,1.3,0.5l0,0C1.8,5,2.3,5.2,3,5.2 c1.2,0,2.2-1,2.2-2.2c0-0.6-0.2-1.1-0.6-1.5l0,0C4.2,1.1,4,0.6,4,0H2C2,0.5,1.8,1,1.4,1.4z"/></g>
<g transform="translate(620,93) scale(5.3216666666667)"><path d="M4.6,1.4C4.6,1.4,4.6,1.4,4.6,1.4C4.2,1,4,0.5,4,0H2c0,0.5-0.2,1-0.5,1.3l0,0C1,1.8,0.8,2.3,0.8,3 c0,1.2,1,2.2,2.2,2.2c0.6,0,1.1-0.2,1.5-0.6l0,0C4.9,4.2,5.4,4,6,4V2C5.5,2,5,1.8,4.6,1.4z"/></g>
<g transform="translate(651,93) scale(5.3216666666667)"><path d="M1.4,4.6C1.4,4.6,1.4,4.6,1.4,4.6C1.8,5,2,5.5,2,6h2c0-0.5,0.2-1,0.5-1.3l0,0C5,4.2,5.2,3.7,5.2,3 c0-1.2-1-2.2-2.2-2.2C2.4,0.8,1.9,1,1.5,1.4l0,0C1.1,1.8,0.6,2,0,2v2C0.5,4,1,4.2,1.4,4.6z"/></g>
<g transform="translate(310,124) scale(5.3216666666667)"><path d="M0.8,3c0,1.2,1,2.2,2.2,2.2s2.2-1,2.2-2.2c0-0.6-0.3-1.2-0.7-1.6C4.2,1,4,0.5,4,0H2c0,0.5-0.2,1-0.6,1.4 C1,1.8,0.8,2.4,0.8,3z"/></g>
<g transform="translate(403,124) scale(5.3216666666667)"><path d="M0.8,3c0,1.2,1,2.2,2.2,2.2s2.2-1,2.2-2.2c0-0.6-0.3-1.2-0.7-1.6C4.2,1,4,0.5,4,0H2c0,0.5-0.2,1-0.6,1.4 C1,1.8,0.8,2.4,0.8,3z"/></g>
<g transform="translate(651,124) scale(5.3216666666667)"><path d="M4.6,4.6C4.6,4.6,4.6,4.6,4.6,4.6c0.3-0.3,0.6-0.5,1-0.6C5.7,4,5.9,4,6,4V2C5.9,2,5.7,2,5.6,2 c-0.4-0.1-0.7-0.3-1-0.5c0,0,0,0,0,0C4.2,1,4,0.5,4,0H2c0,0.5-0.2,1-0.5,1.3c0,0,0,0,0,0C1,1.8,0.8,2.3,0.8,3S1,4.2,1.5,4.6 c0,0,0,0,0,0C1.8,5,2,5.5,2,6h2C4,5.5,4.2,5,4.6,4.6z"/></g>
<g transform="translate(682,124) scale(5.3216666666667)"><path d="M3,5.2c1.2,0,2.2-1,2.2-2.2S4.2,0.8,3,0.8C2.4,0.8,1.8,1,1.4,1.4C1,1.8,0.5,2,0,2v2c0.5,0,1,0.2,1.4,0.6 C1.8,5,2.4,5.2,3,5.2z"/></g>
<g transform="translate(434,155) scale(5.3216666666667)"><circle cx="3" cy="3" r="3"/></g>
<g transform="translate(496,155) scale(5.3216666666667)"><path d="M4.6,4.6C4.6,4.6,4.6,4.6,4.6,4.6C5,4.2,5.5,4,6,4V2C5.5,2,5,1.8,4.7,1.5l0,0C4.2,1,3.7,0.8,3,0.8 c-1.2,0-2.2,1-2.2,2.2c0,0.6,0.2,1.1,0.6,1.5l0,0C1.8,4.9,2,5.4,2,6h2C4,5.5,4.2,5,4.6,4.6z"/></g>
<g transform="translate(527,155) scale(5.3216666666667)"><path d="M0.3,4.3C0.8,5.3,1.8,6,3,6s2.2-0.7,2.7-1.7C5.8,4.1,5.9,4,6,4V2C5.9,2,5.8,1.9,5.7,1.7C5.2,0.7,4.2,0,3,0 S0.8,0.7,0.3,1.7C0.2,1.9,0.1,2,0,2v2C0.1,4,0.2,4.1,0.3,4.3z"/></g>
<g transform="translate(558,155) scale(5.3216666666667)"><path d="M0.3,4.3C0.8,5.3,1.8,6,3,6s2.2-0.7,2.7-1.7C5.8,4.1,5.9,4,6,4V2C5.9,2,5.8,1.9,5.7,1.7C5.2,0.7,4.2,0,3,0 S0.8,0.7,0.3,1.7C0.2,1.9,0.1,2,0,2v2C0.1,4,0.2,4.1,0.3,4.3z"/></g>
<g transform="translate(589,155) scale(5.3216666666667)"><path d="M3,5.2c1.2,0,2.2-1,2.2-2.2S4.2,0.8,3,0.8C2.4,0.8,1.8,1,1.4,1.4C1,1.8,0.5,2,0,2v2c0.5,0,1,0.2,1.4,0.6 C1.8,5,2.4,5.2,3,5.2z"/></g>
<g transform="translate(651,155) scale(5.3216666666667)"><path d="M4.3,5.7C5.3,5.2,6,4.2,6,3S5.3,0.8,4.3,0.3C4.1,0.2,4,0.1,4,0H2c0,0.1-0.1,0.2-0.3,0.3C0.7,0.8,0,1.8,0,3 s0.7,2.2,1.7,2.7C1.9,5.8,2,5.9,2,6h2C4,5.9,4.1,5.8,4.3,5.7z"/></g>
<g transform="translate(465,186) scale(5.3216666666667)"><path d="M3,0.8c-1.2,0-2.2,1-2.2,2.2s1,2.2,2.2,2.2c0.6,0,1.2-0.3,1.6-0.7C5,4.2,5.5,4,6,4V2C5.5,2,5,1.8,4.6,1.4 C4.2,1,3.6,0.8,3,0.8z"/></g>
<g transform="translate(496,186) scale(5.3216666666667)"><path d="M1.4,1.4C1.4,1.4,1.4,1.4,1.4,1.4C1.1,1.7,0.8,1.9,0.4,2C0.3,2,0.1,2,0,2v2c0.1,0,0.3,0,0.4,0 c0.4,0.1,0.7,0.3,1,0.5c0,0,0,0,0,0C1.8,5,2,5.5,2,6h2c0-0.5,0.2-1,0.5-1.3c0,0,0,0,0,0C5,4.2,5.2,3.7,5.2,3S5,1.8,4.5,1.4 c0,0,0,0,0,0C4.2,1,4,0.5,4,0H2C2,0.5,1.8,1,1.4,1.4z"/></g>
<g transform="translate(651,186) scale(5.3216666666667)"><path d="M4.6,1.4C4.6,1.4,4.6,1.4,4.6,1.4C4.2,1,4,0.5,4,0H2c0,0.5-0.2,1-0.5,1.3l0,0C1,1.8,0.8,2.3,0.8,3 c0,1.2,1,2.2,2.2,2.2c0.6,0,1.1-0.2,1.5-0.6l0,0C4.9,4.2,5.4,4,6,4V2C5.5,2,5,1.8,4.6,1.4z"/></g>
<g transform="translate(682,186) scale(5.3216666666667)"><path d="M3,5.2c1.2,0,2.2-1,2.2-2.2S4.2,0.8,3,0.8C2.4,0.8,1.8,1,1.4,1.4C1,1.8,0.5,2,0,2v2c0.5,0,1,0.2,1.4,0.6 C1.8,5,2.4,5.2,3,5.2z"/></g>
<g transform="translate(310,217) scale(5.3216666666667)"><path d="M4.6,4.6C4.6,4.6,4.6,4.6,4.6,4.6C5,4.2,5.5,4,6,4V2C5.5,2,5,1.8,4.7,1.5l0,0C4.2,1,3.7,0.8,3,0.8 c-1.2,0-2.2,1-2.2,2.2c0,0.6,0.2,1.1,0.6,1.5l0,0C1.8,4.9,2,5.4,2,6h2C4,5.5,4.2,5,4.6,4.6z"/></g>
<g transform="translate(341,217) scale(5.3216666666667)"><path d="M3,5.2c1.2,0,2.2-1,2.2-2.2S4.2,0.8,3,0.8C2.4,0.8,1.8,1,1.4,1.4C1,1.8,0.5,2,0,2v2c0.5,0,1,0.2,1.4,0.6 C1.8,5,2.4,5.2,3,5.2z"/></g>
<g transform="translate(403,217) scale(5.3216666666667)"><circle cx="3" cy="3" r="3"/></g>
<g transform="translate(496,217) scale(5.3216666666667)"><path d="M4.6,4.6C4.6,4.6,4.6,4.6,4.6,4.6c0.3-0.3,0.6-0.5,1-0.6C5.7,4,5.9,4,6,4V2C5.9,2,5.7,2,5.6,2 c-0.4-0.1-0.7-0.3-1-0.5c0,0,0,0,0,0C4.2,1,4,0.5,4,0H2c0,0.5-0.2,1-0.5,1.3c0,0,0,0,0,0C1,1.8,0.8,2.3,0.8,3S1,4.2,1.5,4.6 c0,0,0,0,0,0C1.8,5,2,5.5,2,6h2C4,5.5,4.2,5,4.6,4.6z"/></g>
<g transform="translate(527,217) scale(5.3216666666667)"><path d="M3,5.2c1.2,0,2.2-1,2.2-2.2S4.2,0.8,3,0.8C2.4,0.8,1.8,1,1.4,1.4C1,1.8,0.5,2,0,2v2c0.5,0,1,0.2,1.4,0.6 C1.8,5,2.4,5.2,3,5.2z"/></g>
<g transform="translate(620,217) scale(5.3216666666667)"><path d="M5.2,3c0-1.2-1-2.2-2.2-2.2S0.8,1.8,0.8,3c0,0.6,0.3,1.2,0.7,1.6C1.8,5,2,5.5,2,6h2c0-0.5,0.2-1,0.6-1.4 C5,4.2,5.2,3.6,5.2,3z"/></g>
<g transform="translate(310,248) scale(5.3216666666667)"><path d="M4.3,5.7C5.3,5.2,6,4.2,6,3S5.3,0.8,4.3,0.3C4.1,0.2,4,0.1,4,0H2c0,0.1-0.1,0.2-0.3,0.3C0.7,0.8,0,1.8,0,3 s0.7,2.2,1.7,2.7C1.9,5.8,2,5.9,2,6h2C4,5.9,4.1,5.8,4.3,5.7z"/></g>
<g transform="translate(372,248) scale(5.3216666666667)"><circle cx="3" cy="3" r="3"/></g>
<g transform="translate(434,248) scale(5.3216666666667)"><path d="M5.2,3c0-1.2-1-2.2-2.2-2.2S0.8,1.8,0.8,3c0,0.6,0.3,1.2,0.7,1.6C1.8,5,2,5.5,2,6h2c0-0.5,0.2-1,0.6-1.4 C5,4.2,5.2,3.6,5.2,3z"/></g>
<g transform="translate(496,248) scale(5.3216666666667)"><path d="M0.8,3c0,1.2,1,2.2,2.2,2.2s2.2-1,2.2-2.2c0-0.6-0.3-1.2-0.7-1.6C4.2,1,4,0.5,4,0H2c0,0.5-0.2,1-0.6,1.4 C1,1.8,0.8,2.4,0.8,3z"/></g>
<g transform="translate(558,248) scale(5.3216666666667)"><path d="M5.2,3c0-1.2-1-2.2-2.2-2.2S0.8,1.8,0.8,3c0,0.6,0.3,1.2,0.7,1.6C1.8,5,2,5.5,2,6h2c0-0.5,0.2-1,0.6-1.4 C5,4.2,5.2,3.6,5.2,3z"/></g>
<g transform="translate(620,248) scale(5.3216666666667)"><path d="M0.8,3c0,1.2,1,2.2,2.2,2.2s2.2-1,2.2-2.2c0-0.6-0.3-1.2-0.7-1.6C4.2,1,4,0.5,4,0H2c0,0.5-0.2,1-0.6,1.4 C1,1.8,0.8,2.4,0.8,3z"/></g>
<g transform="translate(682,248) scale(5.3216666666667)"><circle cx="3" cy="3" r="3"/></g>
<g transform="translate(310,279) scale(5.3216666666667)"><path d="M4.3,5.7C5.3,5.2,6,4.2,6,3S5.3,0.8,4.3,0.3C4.1,0.2,4,0.1,4,0H2c0,0.1-0.1,0.2-0.3,0.3C0.7,0.8,0,1.8,0,3 s0.7,2.2,1.7,2.7C1.9,5.8,2,5.9,2,6h2C4,5.9,4.1,5.8,4.3,5.7z"/></g>
<g transform="translate(434,279) scale(5.3216666666667)"><path d="M4.6,1.4C4.6,1.4,4.6,1.4,4.6,1.4C4.2,1,4,0.5,4,0H2c0,0.5-0.2,1-0.5,1.3l0,0C1,1.8,0.8,2.3,0.8,3 c0,1.2,1,2.2,2.2,2.2c0.6,0,1.1-0.2,1.5-0.6l0,0C4.9,4.2,5.4,4,6,4V2C5.5,2,5,1.8,4.6,1.4z"/></g>
<g transform="translate(465,279) scale(5.3216666666667)"><path d="M1.4,4.6C1.4,4.6,1.4,4.6,1.4,4.6C1.8,5,2,5.5,2,6h2c0-0.5,0.2-1,0.5-1.3l0,0C5,4.2,5.2,3.7,5.2,3 c0-1.2-1-2.2-2.2-2.2C2.4,0.8,1.9,1,1.5,1.4l0,0C1.1,1.8,0.6,2,0,2v2C0.5,4,1,4.2,1.4,4.6z"/></g>
<g transform="translate(558,279) scale(5.3216666666667)"><path d="M4.3,5.7C5.3,5.2,6,4.2,6,3S5.3,0.8,4.3,0.3C4.1,0.2,4,0.1,4,0H2c0,0.1-0.1,0.2-0.3,0.3C0.7,0.8,0,1.8,0,3 s0.7,2.2,1.7,2.7C1.9,5.8,2,5.9,2,6h2C4,5.9,4.1,5.8,4.3,5.7z"/></g>
<g transform="translate(651,279) scale(5.3216666666667)"><circle cx="3" cy="3" r="3"/></g>
<g transform="translate(124,310) scale(5.3216666666667)"><path d="M4.6,4.6C4.6,4.6,4.6,4.6,4.6,4.6C5,4.2,5.5,4,6,4V2C5.5,2,5,1.8,4.7,1.5l0,0C4.2,1,3.7,0.8,3,0.8 c-1.2,0-2.2,1-2.2,2.2c0,0.6,0.2,1.1,0.6,1.5l0,0C1.8,4.9,2,5.4,2,6h2C4,5.5,4.2,5,4.6,4.6z"/></g>
<g transform="translate(155,310) scale(5.3216666666667)"><path d="M0.3,4.3C0.8,5.3,1.8,6,3,6s2.2-0.7,2.7-1.7C5.8,4.1,5.9,4,6,4V2C5.9,2,5.8,1.9,5.7,1.7C5.2,0.7,4.2,0,3,0 S0.8,0.7,0.3,1.7C0.2,1.9,0.1,2,0,2v2C0.1,4,0.2,4.1,0.3,4.3z"/></g>
<g transform="translate(186,310) scale(5.3216666666667)"><path d="M3,5.2c1.2,0,2.2-1,2.2-2.2S4.2,0.8,3,0.8C2.4,0.8,1.8,1,1.4,1.4C1,1.8,0.5,2,0,2v2c0.5,0,1,0.2,1.4,0.6 C1.8,5,2.4,5.2,3,5.2z"/></g>
<g transform="translate(248,310) scale(5.3216666666667)"><circle cx="3" cy="3" r="3"/></g>
<g transform="translate(310,310) scale(5.3216666666667)"><path d="M4.3,5.7C5.3,5.2,6,4.2,6,3S5.3,0.8,4.3,0.3C4.1,0.2,4,0.1,4,0H2c0,0.1-0.1,0.2-0.3,0.3C0.7,0.8,0,1.8,0,3 s0.7,2.2,1.7,2.7C1.9,5.8,2,5.9,2,6h2C4,5.9,4.1,5.8,4.3,5.7z"/></g>
<g transform="translate(372,310) scale(5.3216666666667)"><circle cx="3" cy="3" r="3"/></g>
<g transform="translate(465,310) scale(5.3216666666667)"><path d="M0.8,3c0,1.2,1,2.2,2.2,2.2s2.2-1,2.2-2.2c0-0.6-0.3-1.2-0.7-1.6C4.2,1,4,0.5,4,0H2c0,0.5-0.2,1-0.6,1.4 C1,1.8,0.8,2.4,0.8,3z"/></g>
<g transform="translate(527,310) scale(5.3216666666667)"><path d="M3,0.8c-1.2,0-2.2,1-2.2,2.2s1,2.2,2.2,2.2c0.6,0,1.2-0.3,1.6-0.7C5,4.2,5.5,4,6,4V2C5.5,2,5,1.8,4.6,1.4 C4.2,1,3.6,0.8,3,0.8z"/></g>
<g transform="translate(558,310) scale(5.3216666666667)"><path d="M1.4,1.4C1.4,1.4,1.4,1.4,1.4,1.4C1.1,1.7,0.8,1.9,0.4,2C0.3,2,0.1,2,0,2v2c0.1,0,0.3,0,0.4,0 c0.4,0.1,0.7,0.3,1,0.5c0,0,0,0,0,0C1.8,5,2,5.5,2,6h2c0-0.5,0.2-1,0.5-1.3c0,0,0,0,0,0C5,4.2,5.2,3.7,5.2,3S5,1.8,4.5,1.4 c0,0,0,0,0,0C4.2,1,4,0.5,4,0H2C2,0.5,1.8,1,1.4,1.4z"/></g>
<g transform="translate(620,310) scale(5.3216666666667)"><circle cx="3" cy="3" r="3"/></g>
<g transform="translate(713,310) scale(5.3216666666667)"><path d="M4.6,4.6C4.6,4.6,4.6,4.6,4.6,4.6C5,4.2,5.5,4,6,4V2C5.5,2,5,1.8,4.7,1.5l0,0C4.2,1,3.7,0.8,3,0.8 c-1.2,0-2.2,1-2.2,2.2c0,0.6,0.2,1.1,0.6,1.5l0,0C1.8,4.9,2,5.4,2,6h2C4,5.5,4.2,5,4.6,4.6z"/></g>
<g transform="translate(744,310) scale(5.3216666666667)"><path d="M1.4,4.6C1.4,4.6,1.4,4.6,1.4,4.6c0.3,0.3,0.5,0.6,0.6,1C2,5.7,2,5.9,2,6h2c0-0.1,0-0.3,0-0.4 c0.1-0.4,0.3-0.7,0.5-1c0,0,0,0,0,0C5,4.2,5.5,4,6,4V2C5.5,2,5,1.8,4.7,1.5c0,0,0,0,0,0C4.2,1,3.7,0.8,3,0.8S1.8,1,1.4,1.5 c0,0,0,0,0,0C1,1.8,0.5,2,0,2v2C0.5,4,1,4.2,1.4,4.6z"/></g>
<g transform="translate(775,310) scale(5.3216666666667)"><path d="M1.4,4.6C1.4,4.6,1.4,4.6,1.4,4.6C1.8,5,2,5.5,2,6h2c0-0.5,0.2-1,0.5-1.3l0,0C5,4.2,5.2,3.7,5.2,3 c0-1.2-1-2.2-2.2-2.2C2.4,0.8,1.9,1,1.5,1.4l0,0C1.1,1.8,0.6,2,0,2v2C0.5,4,1,4.2,1.4,4.6z"/></g>
<g transform="translate(868,310) scale(5.3216666666667)"><path d="M3,0.8c-1.2,0-2.2,1-2.2,2.2s1,2.2,2.2,2.2c0.6,0,1.2-0.3,1.6-0.7C5,4.2,5.5,4,6,4V2C5.5,2,5,1.8,4.6,1.4 C4.2,1,3.6,0.8,3,0.8z"/></g>
<g transform="translate(899,310) scale(5.3216666666667)"><path d="M0.3,4.3C0.8,5.3,1.8,6,3,6s2.2-0.7,2.7-1.7C5.8,4.1,5.9,4,6,4V2C5.9,2,5.8,1.9,5.7,1.7C5.2,0.7,4.2,0,3,0 S0.8,0.7,0.3,1.7C0.2,1.9,0.1,2,0,2v2C0.1,4,0.2,4.1,0.3,4.3z"/></g>
<g transform="translate(930,310) scale(5.3216666666667)"><path d="M1.4,4.6C1.4,4.6,1.4,4.6,1.4,4.6C1.8,5,2,5.5,2,6h2c0-0.5,0.2-1,0.5-1.3l0,0C5,4.2,5.2,3.7,5.2,3 c0-1.2-1-2.2-2.2-2.2C2.4,0.8,1.9,1,1.5,1.4l0,0C1.1,1.8,0.6,2,0,2v2C0.5,4,1,4.2,1.4,4.6z"/></g>
<g transform="translate(62,341) scale(5.3216666666667)"><path d="M5.2,3c0-1.2-1-2.2-2.2-2.2S0.8,1.8,0.8,3c0,0.6,0.3,1.2,0.7,1.6C1.8,5,2,5.5,2,6h2c0-0.5,0.2-1,0.6-1.4 C5,4.2,5.2,3.6,5.2,3z"/></g>
<g transform="translate(124,341) scale(5.3216666666667)"><path d="M0.8,3c0,1.2,1,2.2,2.2,2.2s2.2-1,2.2-2.2c0-0.6-0.3-1.2-0.7-1.6C4.2,1,4,0.5,4,0H2c0,0.5-0.2,1-0.6,1.4 C1,1.8,0.8,2.4,0.8,3z"/></g>
<g transform="translate(279,341) scale(5.3216666666667)"><path d="M4.6,4.6C4.6,4.6,4.6,4.6,4.6,4.6C5,4.2,5.5,4,6,4V2C5.5,2,5,1.8,4.7,1.5l0,0C4.2,1,3.7,0.8,3,0.8 c-1.2,0-2.2,1-2.2,2.2c0,0.6,0.2,1.1,0.6,1.5l0,0C1.8,4.9,2,5.4,2,6h2C4,5.5,4.2,5,4.6,4.6z"/></g>
<g transform="translate(310,341) scale(5.3216666666667)"><path d="M1.4,1.4C1.4,1.4,1.4,1.4,1.4,1.4C1,1.8,0.5,2,0,2v2c0.5,0,1,0.2,1.3,0.5l0,0C1.8,5,2.3,5.2,3,5.2 c1.2,0,2.2-1,2.2-2.2c0-0.6-0.2-1.1-0.6-1.5l0,0C4.2,1.1,4,0.6,4,0H2C2,0.5,1.8,1,1.4,1.4z"/></g>
<g transform="translate(403,341) scale(5.3216666666667)"><path d="M3,0.8c-1.2,0-2.2,1-2.2,2.2s1,2.2,2.2,2.2c0.6,0,1.2-0.3,1.6-0.7C5,4.2,5.5,4,6,4V2C5.5,2,5,1.8,4.6,1.4 C4.2,1,3.6,0.8,3,0.8z"/></g>
<g transform="translate(434,341) scale(5.3216666666667)"><path d="M1.4,4.6C1.4,4.6,1.4,4.6,1.4,4.6C1.8,5,2,5.5,2,6h2c0-0.5,0.2-1,0.5-1.3l0,0C5,4.2,5.2,3.7,5.2,3 c0-1.2-1-2.2-2.2-2.2C2.4,0.8,1.9,1,1.5,1.4l0,0C1.1,1.8,0.6,2,0,2v2C0.5,4,1,4.2,1.4,4.6z"/></g>
<g transform="translate(558,341) scale(5.3216666666667)"><path d="M4.3,5.7C5.3,5.2,6,4.2,6,3S5.3,0.8,4.3,0.3C4.1,0.2,4,0.1,4,0H2c0,0.1-0.1,0.2-0.3,0.3C0.7,0.8,0,1.8,0,3 s0.7,2.2,1.7,2.7C1.9,5.8,2,5.9,2,6h2C4,5.9,4.1,5.8,4.3,5.7z"/></g>
<g transform="translate(713,341) scale(5.3216666666667)"><path d="M4.6,4.6C4.6,4.6,4.6,4.6,4.6,4.6c0.3-0.3,0.6-0.5,1-0.6C5.7,4,5.9,4,6,4V2C5.9,2,5.7,2,5.6,2 c-0.4-0.1-0.7-0.3-1-0.5c0,0,0,0,0,0C4.2,1,4,0.5,4,0H2c0,0.5-0.2,1-0.5,1.3c0,0,0,0,0,0C1,1.8,0.8,2.3,0.8,3S1,4.2,1.5,4.6 c0,0,0,0,0,0C1.8,5,2,5.5,2,6h2C4,5.5,4.2,5,4.6,4.6z"/></g>
<g transform="translate(744,341) scale(5.3216666666667)"><path d="M4,0H2c0,1.1-0.9,2-2,2v2c1.1,0,2,0.9,2,2h2c0-1.1,0.9-2,2-2V2C4.9,2,4,1.1,4,0z"/></g>
<g transform="translate(775,341) scale(5.3216666666667)"><path d="M4,0H2c0,1.1-0.9,2-2,2v2c1.1,0,2,0.9,2,2h2c0-1.1,0.9-2,2-2V2C4.9,2,4,1.1,4,0z"/></g>
<g transform="translate(806,341) scale(5.3216666666667)"><path d="M3,5.2c1.2,0,2.2-1,2.2-2.2S4.2,0.8,3,0.8C2.4,0.8,1.8,1,1.4,1.4C1,1.8,0.5,2,0,2v2c0.5,0,1,0.2,1.4,0.6 C1.8,5,2.4,5.2,3,5.2z"/></g>
<g transform="translate(930,341) scale(5.3216666666667)"><path d="M0.8,3c0,1.2,1,2.2,2.2,2.2s2.2-1,2.2-2.2c0-0.6-0.3-1.2-0.7-1.6C4.2,1,4,0.5,4,0H2c0,0.5-0.2,1-0.6,1.4 C1,1.8,0.8,2.4,0.8,3z"/></g>
<g transform="translate(62,372) scale(5.3216666666667)"><path d="M0.8,3c0,1.2,1,2.2,2.2,2.2s2.2-1,2.2-2.2c0-0.6-0.3-1.2-0.7-1.6C4.2,1,4,0.5,4,0H2c0,0.5-0.2,1-0.6,1.4 C1,1.8,0.8,2.4,0.8,3z"/></g>
<g transform="translate(248,372) scale(5.3216666666667)"><path d="M3,0.8c-1.2,0-2.2,1-2.2,2.2s1,2.2,2.2,2.2c0.6,0,1.2-0.3,1.6-0.7C5,4.2,5.5,4,6,4V2C5.5,2,5,1.8,4.6,1.4 C4.2,1,3.6,0.8,3,0.8z"/></g>
<g transform="translate(279,372) scale(5.3216666666667)"><path d="M1.4,1.4C1.4,1.4,1.4,1.4,1.4,1.4C1.1,1.7,0.8,1.9,0.4,2C0.3,2,0.1,2,0,2v2c0.1,0,0.3,0,0.4,0 c0.4,0.1,0.7,0.3,1,0.5c0,0,0,0,0,0C1.8,5,2,5.5,2,6h2c0-0.5,0.2-1,0.5-1.3c0,0,0,0,0,0C5,4.2,5.2,3.7,5.2,3S5,1.8,4.5,1.4 c0,0,0,0,0,0C4.2,1,4,0.5,4,0H2C2,0.5,1.8,1,1.4,1.4z"/></g>
<g transform="translate(341,372) scale(5.3216666666667)"><circle cx="3" cy="3" r="3"/></g>
<g transform="translate(434,372) scale(5.3216666666667)"><path d="M4.3,5.7C5.3,5.2,6,4.2,6,3S5.3,0.8,4.3,0.3C4.1,0.2,4,0.1,4,0H2c0,0.1-0.1,0.2-0.3,0.3C0.7,0.8,0,1.8,0,3 s0.7,2.2,1.7,2.7C1.9,5.8,2,5.9,2,6h2C4,5.9,4.1,5.8,4.3,5.7z"/></g>
<g transform="translate(527,372) scale(5.3216666666667)"><path d="M3,0.8c-1.2,0-2.2,1-2.2,2.2s1,2.2,2.2,2.2c0.6,0,1.2-0.3,1.6-0.7C5,4.2,5.5,4,6,4V2C5.5,2,5,1.8,4.6,1.4 C4.2,1,3.6,0.8,3,0.8z"/></g>
<g transform="translate(558,372) scale(5.3216666666667)"><path d="M1.4,1.4C1.4,1.4,1.4,1.4,1.4,1.4C1,1.8,0.5,2,0,2v2c0.5,0,1,0.2,1.3,0.5l0,0C1.8,5,2.3,5.2,3,5.2 c1.2,0,2.2-1,2.2-2.2c0-0.6-0.2-1.1-0.6-1.5l0,0C4.2,1.1,4,0.6,4,0H2C2,0.5,1.8,1,1.4,1.4z"/></g>
<g transform="translate(682,372) scale(5.3216666666667)"><path d="M3,0.8c-1.2,0-2.2,1-2.2,2.2s1,2.2,2.2,2.2c0.6,0,1.2-0.3,1.6-0.7C5,4.2,5.5,4,6,4V2C5.5,2,5,1.8,4.6,1.4 C4.2,1,3.6,0.8,3,0.8z"/></g>
<g transform="translate(713,372) scale(5.3216666666667)"><path d="M4,0H2c0,1.1-0.9,2-2,2v2c1.1,0,2,0.9,2,2h2c0-1.1,0.9-2,2-2V2C4.9,2,4,1.1,4,0z"/></g>
<g transform="translate(744,372) scale(5.3216666666667)"><path d="M4,0H2c0,1.1-0.9,2-2,2v2c1.1,0,2,0.9,2,2h2c0-1.1,0.9-2,2-2V2C4.9,2,4,1.1,4,0z"/></g>
<g transform="translate(775,372) scale(5.3216666666667)"><path d="M1.4,1.4C1.4,1.4,1.4,1.4,1.4,1.4C1,1.8,0.5,2,0,2v2c0.5,0,1,0.2,1.3,0.5l0,0C1.8,5,2.3,5.2,3,5.2 c1.2,0,2.2-1,2.2-2.2c0-0.6-0.2-1.1-0.6-1.5l0,0C4.2,1.1,4,0.6,4,0H2C2,0.5,1.8,1,1.4,1.4z"/></g>
<g transform="translate(837,372) scale(5.3216666666667)"><path d="M4.6,4.6C4.6,4.6,4.6,4.6,4.6,4.6C5,4.2,5.5,4,6,4V2C5.5,2,5,1.8,4.7,1.5l0,0C4.2,1,3.7,0.8,3,0.8 c-1.2,0-2.2,1-2.2,2.2c0,0.6,0.2,1.1,0.6,1.5l0,0C1.8,4.9,2,5.4,2,6h2C4,5.5,4.2,5,4.6,4.6z"/></g>
<g transform="translate(868,372) scale(5.3216666666667)"><path d="M3,5.2c1.2,0,2.2-1,2.2-2.2S4.2,0.8,3,0.8C2.4,0.8,1.8,1,1.4,1.4C1,1.8,0.5,2,0,2v2c0.5,0,1,0.2,1.4,0.6 C1.8,5,2.4,5.2,3,5.2z"/></g>
<g transform="translate(93,403) scale(5.3216666666667)"><path d="M5.2,3c0-1.2-1-2.2-2.2-2.2S0.8,1.8,0.8,3c0,0.6,0.3,1.2,0.7,1.6C1.8,5,2,5.5,2,6h2c0-0.5,0.2-1,0.6-1.4 C5,4.2,5.2,3.6,5.2,3z"/></g>
<g transform="translate(155,403) scale(5.3216666666667)"><path d="M5.2,3c0-1.2-1-2.2-2.2-2.2S0.8,1.8,0.8,3c0,0.6,0.3,1.2,0.7,1.6C1.8,5,2,5.5,2,6h2c0-0.5,0.2-1,0.6-1.4 C5,4.2,5.2,3.6,5.2,3z"/></g>
<g transform="translate(217,403) scale(5.3216666666667)"><circle cx="3" cy="3" r="3"/></g>
<g transform="translate(279,403) scale(5.3216666666667)"><path d="M4.3,5.7C5.3,5.2,6,4.2,6,3S5.3,0.8,4.3,0.3C4.1,0.2,4,0.1,4,0H2c0,0.1-0.1,0.2-0.3,0.3C0.7,0.8,0,1.8,0,3 s0.7,2.2,1.7,2.7C1.9,5.8,2,5.9,2,6h2C4,5.9,4.1,5.8,4.3,5.7z"/></g>
<g transform="translate(372,403) scale(5.3216666666667)"><path d="M3,0.8c-1.2,0-2.2,1-2.2,2.2s1,2.2,2.2,2.2c0.6,0,1.2-0.3,1.6-0.7C5,4.2,5.5,4,6,4V2C5.5,2,5,1.8,4.6,1.4 C4.2,1,3.6,0.8,3,0.8z"/></g>
<g transform="translate(403,403) scale(5.3216666666667)"><path d="M1.4,4.6C1.4,4.6,1.4,4.6,1.4,4.6c0.3,0.3,0.5,0.6,0.6,1C2,5.7,2,5.9,2,6h2c0-0.1,0-0.3,0-0.4 c0.1-0.4,0.3-0.7,0.5-1c0,0,0,0,0,0C5,4.2,5.5,4,6,4V2C5.5,2,5,1.8,4.7,1.5c0,0,0,0,0,0C4.2,1,3.7,0.8,3,0.8S1.8,1,1.4,1.5 c0,0,0,0,0,0C1,1.8,0.5,2,0,2v2C0.5,4,1,4.2,1.4,4.6z"/></g>
<g transform="translate(434,403) scale(5.3216666666667)"><path d="M1.4,1.4C1.4,1.4,1.4,1.4,1.4,1.4C1.1,1.7,0.8,1.9,0.4,2C0.3,2,0.1,2,0,2v2c0.1,0,0.3,0,0.4,0 c0.4,0.1,0.7,0.3,1,0.5c0,0,0,0,0,0C1.8,5,2,5.5,2,6h2c0-0.5,0.2-1,0.5-1.3c0,0,0,0,0,0C5,4.2,5.2,3.7,5.2,3S5,1.8,4.5,1.4 c0,0,0,0,0,0C4.2,1,4,0.5,4,0H2C2,0.5,1.8,1,1.4,1.4z"/></g>
<g transform="translate(496,403) scale(5.3216666666667)"><path d="M5.2,3c0-1.2-1-2.2-2.2-2.2S0.8,1.8,0.8,3c0,0.6,0.3,1.2,0.7,1.6C1.8,5,2,5.5,2,6h2c0-0.5,0.2-1,0.6-1.4 C5,4.2,5.2,3.6,5.2,3z"/></g>
<g transform="translate(620,403) scale(5.3216666666667)"><path d="M5.2,3c0-1.2-1-2.2-2.2-2.2S0.8,1.8,0.8,3c0,0.6,0.3,1.2,0.7,1.6C1.8,5,2,5.5,2,6h2c0-0.5,0.2-1,0.6-1.4 C5,4.2,5.2,3.6,5.2,3z"/></g>
<g transform="translate(713,403) scale(5.3216666666667)"><path d="M4.6,4.6C4.6,4.6,4.6,4.6,4.6,4.6c0.3-0.3,0.6-0.5,1-0.6C5.7,4,5.9,4,6,4V2C5.9,2,5.7,2,5.6,2 c-0.4-0.1-0.7-0.3-1-0.5c0,0,0,0,0,0C4.2,1,4,0.5,4,0H2c0,0.5-0.2,1-0.5,1.3c0,0,0,0,0,0C1,1.8,0.8,2.3,0.8,3S1,4.2,1.5,4.6 c0,0,0,0,0,0C1.8,5,2,5.5,2,6h2C4,5.5,4.2,5,4.6,4.6z"/></g>
<g transform="translate(744,403) scale(5.3216666666667)"><path d="M1.4,1.4C1.4,1.4,1.4,1.4,1.4,1.4C1,1.8,0.5,2,0,2v2c0.5,0,1,0.2,1.3,0.5l0,0C1.8,5,2.3,5.2,3,5.2 c1.2,0,2.2-1,2.2-2.2c0-0.6-0.2-1.1-0.6-1.5l0,0C4.2,1.1,4,0.6,4,0H2C2,0.5,1.8,1,1.4,1.4z"/></g>
<g transform="translate(806,403) scale(5.3216666666667)"><path d="M3,0.8c-1.2,0-2.2,1-2.2,2.2s1,2.2,2.2,2.2c0.6,0,1.2-0.3,1.6-0.7C5,4.2,5.5,4,6,4V2C5.5,2,5,1.8,4.6,1.4 C4.2,1,3.6,0.8,3,0.8z"/></g>
<g transform="translate(837,403) scale(5.3216666666667)"><path d="M1.4,1.4C1.4,1.4,1.4,1.4,1.4,1.4C1,1.8,0.5,2,0,2v2c0.5,0,1,0.2,1.3,0.5l0,0C1.8,5,2.3,5.2,3,5.2 c1.2,0,2.2-1,2.2-2.2c0-0.6-0.2-1.1-0.6-1.5l0,0C4.2,1.1,4,0.6,4,0H2C2,0.5,1.8,1,1.4,1.4z"/></g>
<g transform="translate(899,403) scale(5.3216666666667)"><path d="M5.2,3c0-1.2-1-2.2-2.2-2.2S0.8,1.8,0.8,3c0,0.6,0.3,1.2,0.7,1.6C1.8,5,2,5.5,2,6h2c0-0.5,0.2-1,0.6-1.4 C5,4.2,5.2,3.6,5.2,3z"/></g>
<g transform="translate(93,434) scale(5.3216666666667)"><path d="M0.8,3c0,1.2,1,2.2,2.2,2.2s2.2-1,2.2-2.2c0-0.6-0.3-1.2-0.7-1.6C4.2,1,4,0.5,4,0H2c0,0.5-0.2,1-0.6,1.4 C1,1.8,0.8,2.4,0.8,3z"/></g>
<g transform="translate(155,434) scale(5.3216666666667)"><path d="M4.6,1.4C4.6,1.4,4.6,1.4,4.6,1.4C4.2,1,4,0.5,4,0H2c0,0.5-0.2,1-0.5,1.3l0,0C1,1.8,0.8,2.3,0.8,3 c0,1.2,1,2.2,2.2,2.2c0.6,0,1.1-0.2,1.5-0.6l0,0C4.9,4.2,5.4,4,6,4V2C5.5,2,5,1.8,4.6,1.4z"/></g>
<g transform="translate(186,434) scale(5.3216666666667)"><path d="M3,5.2c1.2,0,2.2-1,2.2-2.2S4.2,0.8,3,0.8C2.4,0.8,1.8,1,1.4,1.4C1,1.8,0.5,2,0,2v2c0.5,0,1,0.2,1.4,0.6 C1.8,5,2.4,5.2,3,5.2z"/></g>
<g transform="translate(248,434) scale(5.3216666666667)"><path d="M3,0.8c-1.2,0-2.2,1-2.2,2.2s1,2.2,2.2,2.2c0.6,0,1.2-0.3,1.6-0.7C5,4.2,5.5,4,6,4V2C5.5,2,5,1.8,4.6,1.4 C4.2,1,3.6,0.8,3,0.8z"/></g>
<g transform="translate(279,434) scale(5.3216666666667)"><path d="M4,0H2c0,1.1-0.9,2-2,2v2c1.1,0,2,0.9,2,2h2c0-1.1,0.9-2,2-2V2C4.9,2,4,1.1,4,0z"/></g>
<g transform="translate(310,434) scale(5.3216666666667)"><path d="M1.4,4.6C1.4,4.6,1.4,4.6,1.4,4.6c0.3,0.3,0.5,0.6,0.6,1C2,5.7,2,5.9,2,6h2c0-0.1,0-0.3,0-0.4 c0.1-0.4,0.3-0.7,0.5-1c0,0,0,0,0,0C5,4.2,5.5,4,6,4V2C5.5,2,5,1.8,4.7,1.5c0,0,0,0,0,0C4.2,1,3.7,0.8,3,0.8S1.8,1,1.4,1.5 c0,0,0,0,0,0C1,1.8,0.5,2,0,2v2C0.5,4,1,4.2,1.4,4.6z"/></g>
<g transform="translate(341,434) scale(5.3216666666667)"><path d="M1.4,4.6C1.4,4.6,1.4,4.6,1.4,4.6C1.8,5,2,5.5,2,6h2c0-0.5,0.2-1,0.5-1.3l0,0C5,4.2,5.2,3.7,5.2,3 c0-1.2-1-2.2-2.2-2.2C2.4,0.8,1.9,1,1.5,1.4l0,0C1.1,1.8,0.6,2,0,2v2C0.5,4,1,4.2,1.4,4.6z"/></g>
<g transform="translate(403,434) scale(5.3216666666667)"><path d="M4.6,4.6C4.6,4.6,4.6,4.6,4.6,4.6c0.3-0.3,0.6-0.5,1-0.6C5.7,4,5.9,4,6,4V2C5.9,2,5.7,2,5.6,2 c-0.4-0.1-0.7-0.3-1-0.5c0,0,0,0,0,0C4.2,1,4,0.5,4,0H2c0,0.5-0.2,1-0.5,1.3c0,0,0,0,0,0C1,1.8,0.8,2.3,0.8,3S1,4.2,1.5,4.6 c0,0,0,0,0,0C1.8,5,2,5.5,2,6h2C4,5.5,4.2,5,4.6,4.6z"/></g>
<g transform="translate(434,434) scale(5.3216666666667)"><path d="M4.6,1.4C4.6,1.4,4.6,1.4,4.6,1.4C4.3,1.1,4.1,0.8,4,0.4C4,0.3,4,0.1,4,0H2c0,0.1,0,0.3,0,0.4 c-0.1,0.4-0.3,0.7-0.5,1c0,0,0,0,0,0C1,1.8,0.5,2,0,2v2c0.5,0,1,0.2,1.3,0.5c0,0,0,0,0,0C1.8,5,2.3,5.2,3,5.2S4.2,5,4.6,4.5 c0,0,0,0,0,0C5,4.2,5.5,4,6,4V2C5.5,2,5,1.8,4.6,1.4z"/></g>
<g transform="translate(465,434) scale(5.3216666666667)"><path d="M1.4,4.6C1.4,4.6,1.4,4.6,1.4,4.6c0.3,0.3,0.5,0.6,0.6,1C2,5.7,2,5.9,2,6h2c0-0.1,0-0.3,0-0.4 c0.1-0.4,0.3-0.7,0.5-1c0,0,0,0,0,0C5,4.2,5.5,4,6,4V2C5.5,2,5,1.8,4.7,1.5c0,0,0,0,0,0C4.2,1,3.7,0.8,3,0.8S1.8,1,1.4,1.5 c0,0,0,0,0,0C1,1.8,0.5,2,0,2v2C0.5,4,1,4.2,1.4,4.6z"/></g>
<g transform="translate(496,434) scale(5.3216666666667)"><path d="M1.4,1.4C1.4,1.4,1.4,1.4,1.4,1.4C1,1.8,0.5,2,0,2v2c0.5,0,1,0.2,1.3,0.5l0,0C1.8,5,2.3,5.2,3,5.2 c1.2,0,2.2-1,2.2-2.2c0-0.6-0.2-1.1-0.6-1.5l0,0C4.2,1.1,4,0.6,4,0H2C2,0.5,1.8,1,1.4,1.4z"/></g>
<g transform="translate(589,434) scale(5.3216666666667)"><path d="M3,0.8c-1.2,0-2.2,1-2.2,2.2s1,2.2,2.2,2.2c0.6,0,1.2-0.3,1.6-0.7C5,4.2,5.5,4,6,4V2C5.5,2,5,1.8,4.6,1.4 C4.2,1,3.6,0.8,3,0.8z"/></g>
<g transform="translate(620,434) scale(5.3216666666667)"><path d="M4.6,1.4C4.6,1.4,4.6,1.4,4.6,1.4C4.3,1.1,4.1,0.8,4,0.4C4,0.3,4,0.1,4,0H2c0,0.1,0,0.3,0,0.4 c-0.1,0.4-0.3,0.7-0.5,1c0,0,0,0,0,0C1,1.8,0.5,2,0,2v2c0.5,0,1,0.2,1.3,0.5c0,0,0,0,0,0C1.8,5,2.3,5.2,3,5.2S4.2,5,4.6,4.5 c0,0,0,0,0,0C5,4.2,5.5,4,6,4V2C5.5,2,5,1.8,4.6,1.4z"/></g>
<g transform="translate(651,434) scale(5.3216666666667)"><path d="M1.4,4.6C1.4,4.6,1.4,4.6,1.4,4.6c0.3,0.3,0.5,0.6,0.6,1C2,5.7,2,5.9,2,6h2c0-0.1,0-0.3,0-0.4 c0.1-0.4,0.3-0.7,0.5-1c0,0,0,0,0,0C5,4.2,5.5,4,6,4V2C5.5,2,5,1.8,4.7,1.5c0,0,0,0,0,0C4.2,1,3.7,0.8,3,0.8S1.8,1,1.4,1.5 c0,0,0,0,0,0C1,1.8,0.5,2,0,2v2C0.5,4,1,4.2,1.4,4.6z"/></g>
<g transform="translate(682,434) scale(5.3216666666667)"><path d="M1.4,4.6C1.4,4.6,1.4,4.6,1.4,4.6c0.3,0.3,0.5,0.6,0.6,1C2,5.7,2,5.9,2,6h2c0-0.1,0-0.3,0-0.4 c0.1-0.4,0.3-0.7,0.5-1c0,0,0,0,0,0C5,4.2,5.5,4,6,4V2C5.5,2,5,1.8,4.7,1.5c0,0,0,0,0,0C4.2,1,3.7,0.8,3,0.8S1.8,1,1.4,1.5 c0,0,0,0,0,0C1,1.8,0.5,2,0,2v2C0.5,4,1,4.2,1.4,4.6z"/></g>
<g transform="translate(713,434) scale(5.3216666666667)"><path d="M1.4,1.4C1.4,1.4,1.4,1.4,1.4,1.4C1.1,1.7,0.8,1.9,0.4,2C0.3,2,0.1,2,0,2v2c0.1,0,0.3,0,0.4,0 c0.4,0.1,0.7,0.3,1,0.5c0,0,0,0,0,0C1.8,5,2,5.5,2,6h2c0-0.5,0.2-1,0.5-1.3c0,0,0,0,0,0C5,4.2,5.2,3.7,5.2,3S5,1.8,4.5,1.4 c0,0,0,0,0,0C4.2,1,4,0.5,4,0H2C2,0.5,1.8,1,1.4,1.4z"/></g>
<g transform="translate(775,434) scale(5.3216666666667)"><circle cx="3" cy="3" r="3"/></g>
<g transform="translate(868,434) scale(5.3216666666667)"><path d="M3,0.8c-1.2,0-2.2,1-2.2,2.2s1,2.2,2.2,2.2c0.6,0,1.2-0.3,1.6-0.7C5,4.2,5.5,4,6,4V2C5.5,2,5,1.8,4.6,1.4 C4.2,1,3.6,0.8,3,0.8z"/></g>
<g transform="translate(899,434) scale(5.3216666666667)"><path d="M4,0H2c0,1.1-0.9,2-2,2v2c1.1,0,2,0.9,2,2h2c0-1.1,0.9-2,2-2V2C4.9,2,4,1.1,4,0z"/></g>
<g transform="translate(930,434) scale(5.3216666666667)"><path d="M1.4,4.6C1.4,4.6,1.4,4.6,1.4,4.6C1.8,5,2,5.5,2,6h2c0-0.5,0.2-1,0.5-1.3l0,0C5,4.2,5.2,3.7,5.2,3 c0-1.2-1-2.2-2.2-2.2C2.4,0.8,1.9,1,1.5,1.4l0,0C1.1,1.8,0.6,2,0,2v2C0.5,4,1,4.2,1.4,4.6z"/></g>
<g transform="translate(62,465) scale(5.3216666666667)"><path d="M5.2,3c0-1.2-1-2.2-2.2-2.2S0.8,1.8,0.8,3c0,0.6,0.3,1.2,0.7,1.6C1.8,5,2,5.5,2,6h2c0-0.5,0.2-1,0.6-1.4 C5,4.2,5.2,3.6,5.2,3z"/></g>
<g transform="translate(124,465) scale(5.3216666666667)"><circle cx="3" cy="3" r="3"/></g>
<g transform="translate(279,465) scale(5.3216666666667)"><path d="M4.6,1.4C4.6,1.4,4.6,1.4,4.6,1.4C4.2,1,4,0.5,4,0H2c0,0.5-0.2,1-0.5,1.3l0,0C1,1.8,0.8,2.3,0.8,3 c0,1.2,1,2.2,2.2,2.2c0.6,0,1.1-0.2,1.5-0.6l0,0C4.9,4.2,5.4,4,6,4V2C5.5,2,5,1.8,4.6,1.4z"/></g>
<g transform="translate(310,465) scale(5.3216666666667)"><path d="M4.6,1.4C4.6,1.4,4.6,1.4,4.6,1.4C4.3,1.1,4.1,0.8,4,0.4C4,0.3,4,0.1,4,0H2c0,0.1,0,0.3,0,0.4 c-0.1,0.4-0.3,0.7-0.5,1c0,0,0,0,0,0C1,1.8,0.5,2,0,2v2c0.5,0,1,0.2,1.3,0.5c0,0,0,0,0,0C1.8,5,2.3,5.2,3,5.2S4.2,5,4.6,4.5 c0,0,0,0,0,0C5,4.2,5.5,4,6,4V2C5.5,2,5,1.8,4.6,1.4z"/></g>
<g transform="translate(341,465) scale(5.3216666666667)"><path d="M1.4,1.4C1.4,1.4,1.4,1.4,1.4,1.4C1,1.8,0.5,2,0,2v2c0.5,0,1,0.2,1.3,0.5l0,0C1.8,5,2.3,5.2,3,5.2 c1.2,0,2.2-1,2.2-2.2c0-0.6-0.2-1.1-0.6-1.5l0,0C4.2,1.1,4,0.6,4,0H2C2,0.5,1.8,1,1.4,1.4z"/></g>
<g transform="translate(403,465) scale(5.3216666666667)"><path d="M4.3,5.7C5.3,5.2,6,4.2,6,3S5.3,0.8,4.3,0.3C4.1,0.2,4,0.1,4,0H2c0,0.1-0.1,0.2-0.3,0.3C0.7,0.8,0,1.8,0,3 s0.7,2.2,1.7,2.7C1.9,5.8,2,5.9,2,6h2C4,5.9,4.1,5.8,4.3,5.7z"/></g>
<g transform="translate(465,465) scale(5.3216666666667)"><path d="M4.3,5.7C5.3,5.2,6,4.2,6,3S5.3,0.8,4.3,0.3C4.1,0.2,4,0.1,4,0H2c0,0.1-0.1,0.2-0.3,0.3C0.7,0.8,0,1.8,0,3 s0.7,2.2,1.7,2.7C1.9,5.8,2,5.9,2,6h2C4,5.9,4.1,5.8,4.3,5.7z"/></g>
<g transform="translate(558,465) scale(5.3216666666667)"><path d="M5.2,3c0-1.2-1-2.2-2.2-2.2S0.8,1.8,0.8,3c0,0.6,0.3,1.2,0.7,1.6C1.8,5,2,5.5,2,6h2c0-0.5,0.2-1,0.6-1.4 C5,4.2,5.2,3.6,5.2,3z"/></g>
<g transform="translate(651,465) scale(5.3216666666667)"><path d="M4.6,1.4C4.6,1.4,4.6,1.4,4.6,1.4C4.2,1,4,0.5,4,0H2c0,0.5-0.2,1-0.5,1.3l0,0C1,1.8,0.8,2.3,0.8,3 c0,1.2,1,2.2,2.2,2.2c0.6,0,1.1-0.2,1.5-0.6l0,0C4.9,4.2,5.4,4,6,4V2C5.5,2,5,1.8,4.6,1.4z"/></g>
<g transform="translate(682,465) scale(5.3216666666667)"><path d="M4,0H2c0,1.1-0.9,2-2,2v2c1.1,0,2,0.9,2,2h2c0-1.1,0.9-2,2-2V2C4.9,2,4,1.1,4,0z"/></g>
<g transform="translate(713,465) scale(5.3216666666667)"><path d="M4,0H2c0,1.1-0.9,2-2,2v2c1.1,0,2,0.9,2,2h2c0-1.1,0.9-2,2-2V2C4.9,2,4,1.1,4,0z"/></g>
<g transform="translate(744,465) scale(5.3216666666667)"><path d="M3,5.2c1.2,0,2.2-1,2.2-2.2S4.2,0.8,3,0.8C2.4,0.8,1.8,1,1.4,1.4C1,1.8,0.5,2,0,2v2c0.5,0,1,0.2,1.4,0.6 C1.8,5,2.4,5.2,3,5.2z"/></g>
<g transform="translate(806,465) scale(5.3216666666667)"><path d="M3,0.8c-1.2,0-2.2,1-2.2,2.2s1,2.2,2.2,2.2c0.6,0,1.2-0.3,1.6-0.7C5,4.2,5.5,4,6,4V2C5.5,2,5,1.8,4.6,1.4 C4.2,1,3.6,0.8,3,0.8z"/></g>
<g transform="translate(837,465) scale(5.3216666666667)"><path d="M3,5.2c1.2,0,2.2-1,2.2-2.2S4.2,0.8,3,0.8C2.4,0.8,1.8,1,1.4,1.4C1,1.8,0.5,2,0,2v2c0.5,0,1,0.2,1.4,0.6 C1.8,5,2.4,5.2,3,5.2z"/></g>
<g transform="translate(899,465) scale(5.3216666666667)"><path d="M4.6,1.4C4.6,1.4,4.6,1.4,4.6,1.4C4.2,1,4,0.5,4,0H2c0,0.5-0.2,1-0.5,1.3l0,0C1,1.8,0.8,2.3,0.8,3 c0,1.2,1,2.2,2.2,2.2c0.6,0,1.1-0.2,1.5-0.6l0,0C4.9,4.2,5.4,4,6,4V2C5.5,2,5,1.8,4.6,1.4z"/></g>
<g transform="translate(930,465) scale(5.3216666666667)"><path d="M1.4,1.4C1.4,1.4,1.4,1.4,1.4,1.4C1,1.8,0.5,2,0,2v2c0.5,0,1,0.2,1.3,0.5l0,0C1.8,5,2.3,5.2,3,5.2 c1.2,0,2.2-1,2.2-2.2c0-0.6-0.2-1.1-0.6-1.5l0,0C4.2,1.1,4,0.6,4,0H2C2,0.5,1.8,1,1.4,1.4z"/></g>
<g transform="translate(62,496) scale(5.3216666666667)"><path d="M4.6,4.6C4.6,4.6,4.6,4.6,4.6,4.6c0.3-0.3,0.6-0.5,1-0.6C5.7,4,5.9,4,6,4V2C5.9,2,5.7,2,5.6,2 c-0.4-0.1-0.7-0.3-1-0.5c0,0,0,0,0,0C4.2,1,4,0.5,4,0H2c0,0.5-0.2,1-0.5,1.3c0,0,0,0,0,0C1,1.8,0.8,2.3,0.8,3S1,4.2,1.5,4.6 c0,0,0,0,0,0C1.8,5,2,5.5,2,6h2C4,5.5,4.2,5,4.6,4.6z"/></g>
<g transform="translate(93,496) scale(5.3216666666667)"><path d="M1.4,4.6C1.4,4.6,1.4,4.6,1.4,4.6C1.8,5,2,5.5,2,6h2c0-0.5,0.2-1,0.5-1.3l0,0C5,4.2,5.2,3.7,5.2,3 c0-1.2-1-2.2-2.2-2.2C2.4,0.8,1.9,1,1.5,1.4l0,0C1.1,1.8,0.6,2,0,2v2C0.5,4,1,4.2,1.4,4.6z"/></g>
<g transform="translate(155,496) scale(5.3216666666667)"><path d="M5.2,3c0-1.2-1-2.2-2.2-2.2S0.8,1.8,0.8,3c0,0.6,0.3,1.2,0.7,1.6C1.8,5,2,5.5,2,6h2c0-0.5,0.2-1,0.6-1.4 C5,4.2,5.2,3.6,5.2,3z"/></g>
<g transform="translate(217,496) scale(5.3216666666667)"><path d="M4.6,4.6C4.6,4.6,4.6,4.6,4.6,4.6C5,4.2,5.5,4,6,4V2C5.5,2,5,1.8,4.7,1.5l0,0C4.2,1,3.7,0.8,3,0.8 c-1.2,0-2.2,1-2.2,2.2c0,0.6,0.2,1.1,0.6,1.5l0,0C1.8,4.9,2,5.4,2,6h2C4,5.5,4.2,5,4.6,4.6z"/></g>
<g transform="translate(248,496) scale(5.3216666666667)"><path d="M3,5.2c1.2,0,2.2-1,2.2-2.2S4.2,0.8,3,0.8C2.4,0.8,1.8,1,1.4,1.4C1,1.8,0.5,2,0,2v2c0.5,0,1,0.2,1.4,0.6 C1.8,5,2.4,5.2,3,5.2z"/></g>
<g transform="translate(372,496) scale(5.3216666666667)"><path d="M4.6,4.6C4.6,4.6,4.6,4.6,4.6,4.6C5,4.2,5.5,4,6,4V2C5.5,2,5,1.8,4.7,1.5l0,0C4.2,1,3.7,0.8,3,0.8 c-1.2,0-2.2,1-2.2,2.2c0,0.6,0.2,1.1,0.6,1.5l0,0C1.8,4.9,2,5.4,2,6h2C4,5.5,4.2,5,4.6,4.6z"/></g>
<g transform="translate(403,496) scale(5.3216666666667)"><path d="M4,0H2c0,1.1-0.9,2-2,2v2c1.1,0,2,0.9,2,2h2c0-1.1,0.9-2,2-2V2C4.9,2,4,1.1,4,0z"/></g>
<g transform="translate(434,496) scale(5.3216666666667)"><path d="M1.4,4.6C1.4,4.6,1.4,4.6,1.4,4.6c0.3,0.3,0.5,0.6,0.6,1C2,5.7,2,5.9,2,6h2c0-0.1,0-0.3,0-0.4 c0.1-0.4,0.3-0.7,0.5-1c0,0,0,0,0,0C5,4.2,5.5,4,6,4V2C5.5,2,5,1.8,4.7,1.5c0,0,0,0,0,0C4.2,1,3.7,0.8,3,0.8S1.8,1,1.4,1.5 c0,0,0,0,0,0C1,1.8,0.5,2,0,2v2C0.5,4,1,4.2,1.4,4.6z"/></g>
<g transform="translate(465,496) scale(5.3216666666667)"><path d="M1.4,1.4C1.4,1.4,1.4,1.4,1.4,1.4C1,1.8,0.5,2,0,2v2c0.5,0,1,0.2,1.3,0.5l0,0C1.8,5,2.3,5.2,3,5.2 c1.2,0,2.2-1,2.2-2.2c0-0.6-0.2-1.1-0.6-1.5l0,0C4.2,1.1,4,0.6,4,0H2C2,0.5,1.8,1,1.4,1.4z"/></g>
<g transform="translate(527,496) scale(5.3216666666667)"><path d="M3,0.8c-1.2,0-2.2,1-2.2,2.2s1,2.2,2.2,2.2c0.6,0,1.2-0.3,1.6-0.7C5,4.2,5.5,4,6,4V2C5.5,2,5,1.8,4.6,1.4 C4.2,1,3.6,0.8,3,0.8z"/></g>
<g transform="translate(558,496) scale(5.3216666666667)"><path d="M1.4,1.4C1.4,1.4,1.4,1.4,1.4,1.4C1,1.8,0.5,2,0,2v2c0.5,0,1,0.2,1.3,0.5l0,0C1.8,5,2.3,5.2,3,5.2 c1.2,0,2.2-1,2.2-2.2c0-0.6-0.2-1.1-0.6-1.5l0,0C4.2,1.1,4,0.6,4,0H2C2,0.5,1.8,1,1.4,1.4z"/></g>
<g transform="translate(620,496) scale(5.3216666666667)"><path d="M5.2,3c0-1.2-1-2.2-2.2-2.2S0.8,1.8,0.8,3c0,0.6,0.3,1.2,0.7,1.6C1.8,5,2,5.5,2,6h2c0-0.5,0.2-1,0.6-1.4 C5,4.2,5.2,3.6,5.2,3z"/></g>
<g transform="translate(682,496) scale(5.3216666666667)"><path d="M4.6,1.4C4.6,1.4,4.6,1.4,4.6,1.4C4.2,1,4,0.5,4,0H2c0,0.5-0.2,1-0.5,1.3l0,0C1,1.8,0.8,2.3,0.8,3 c0,1.2,1,2.2,2.2,2.2c0.6,0,1.1-0.2,1.5-0.6l0,0C4.9,4.2,5.4,4,6,4V2C5.5,2,5,1.8,4.6,1.4z"/></g>
<g transform="translate(713,496) scale(5.3216666666667)"><path d="M1.4,1.4C1.4,1.4,1.4,1.4,1.4,1.4C1.1,1.7,0.8,1.9,0.4,2C0.3,2,0.1,2,0,2v2c0.1,0,0.3,0,0.4,0 c0.4,0.1,0.7,0.3,1,0.5c0,0,0,0,0,0C1.8,5,2,5.5,2,6h2c0-0.5,0.2-1,0.5-1.3c0,0,0,0,0,0C5,4.2,5.2,3.7,5.2,3S5,1.8,4.5,1.4 c0,0,0,0,0,0C4.2,1,4,0.5,4,0H2C2,0.5,1.8,1,1.4,1.4z"/></g>
<g transform="translate(775,496) scale(5.3216666666667)"><circle cx="3" cy="3" r="3"/></g>
<g transform="translate(62,527) scale(5.3216666666667)"><path d="M4.6,1.4C4.6,1.4,4.6,1.4,4.6,1.4C4.2,1,4,0.5,4,0H2c0,0.5-0.2,1-0.5,1.3l0,0C1,1.8,0.8,2.3,0.8,3 c0,1.2,1,2.2,2.2,2.2c0.6,0,1.1-0.2,1.5-0.6l0,0C4.9,4.2,5.4,4,6,4V2C5.5,2,5,1.8,4.6,1.4z"/></g>
<g transform="translate(93,527) scale(5.3216666666667)"><path d="M1.4,1.4C1.4,1.4,1.4,1.4,1.4,1.4C1.1,1.7,0.8,1.9,0.4,2C0.3,2,0.1,2,0,2v2c0.1,0,0.3,0,0.4,0 c0.4,0.1,0.7,0.3,1,0.5c0,0,0,0,0,0C1.8,5,2,5.5,2,6h2c0-0.5,0.2-1,0.5-1.3c0,0,0,0,0,0C5,4.2,5.2,3.7,5.2,3S5,1.8,4.5,1.4 c0,0,0,0,0,0C4.2,1,4,0.5,4,0H2C2,0.5,1.8,1,1.4,1.4z"/></g>
<g transform="translate(155,527) scale(5.3216666666667)"><path d="M4.3,5.7C5.3,5.2,6,4.2,6,3S5.3,0.8,4.3,0.3C4.1,0.2,4,0.1,4,0H2c0,0.1-0.1,0.2-0.3,0.3C0.7,0.8,0,1.8,0,3 s0.7,2.2,1.7,2.7C1.9,5.8,2,5.9,2,6h2C4,5.9,4.1,5.8,4.3,5.7z"/></g>
<g transform="translate(217,527) scale(5.3216666666667)"><path d="M4.3,5.7C5.3,5.2,6,4.2,6,3S5.3,0.8,4.3,0.3C4.1,0.2,4,0.1,4,0H2c0,0.1-0.1,0.2-0.3,0.3C0.7,0.8,0,1.8,0,3 s0.7,2.2,1.7,2.7C1.9,5.8,2,5.9,2,6h2C4,5.9,4.1,5.8,4.3,5.7z"/></g>
<g transform="translate(310,527) scale(5.3216666666667)"><path d="M4.6,4.6C4.6,4.6,4.6,4.6,4.6,4.6C5,4.2,5.5,4,6,4V2C5.5,2,5,1.8,4.7,1.5l0,0C4.2,1,3.7,0.8,3,0.8 c-1.2,0-2.2,1-2.2,2.2c0,0.6,0.2,1.1,0.6,1.5l0,0C1.8,4.9,2,5.4,2,6h2C4,5.5,4.2,5,4.6,4.6z"/></g>
<g transform="translate(341,527) scale(5.3216666666667)"><path d="M1.4,4.6C1.4,4.6,1.4,4.6,1.4,4.6c0.3,0.3,0.5,0.6,0.6,1C2,5.7,2,5.9,2,6h2c0-0.1,0-0.3,0-0.4 c0.1-0.4,0.3-0.7,0.5-1c0,0,0,0,0,0C5,4.2,5.5,4,6,4V2C5.5,2,5,1.8,4.7,1.5c0,0,0,0,0,0C4.2,1,3.7,0.8,3,0.8S1.8,1,1.4,1.5 c0,0,0,0,0,0C1,1.8,0.5,2,0,2v2C0.5,4,1,4.2,1.4,4.6z"/></g>
<g transform="translate(372,527) scale(5.3216666666667)"><path d="M4.6,1.4C4.6,1.4,4.6,1.4,4.6,1.4C4.3,1.1,4.1,0.8,4,0.4C4,0.3,4,0.1,4,0H2c0,0.1,0,0.3,0,0.4 c-0.1,0.4-0.3,0.7-0.5,1c0,0,0,0,0,0C1,1.8,0.5,2,0,2v2c0.5,0,1,0.2,1.3,0.5c0,0,0,0,0,0C1.8,5,2.3,5.2,3,5.2S4.2,5,4.6,4.5 c0,0,0,0,0,0C5,4.2,5.5,4,6,4V2C5.5,2,5,1.8,4.6,1.4z"/></g>
<g transform="translate(403,527) scale(5.3216666666667)"><path d="M4.6,1.4C4.6,1.4,4.6,1.4,4.6,1.4C4.3,1.1,4.1,0.8,4,0.4C4,0.3,4,0.1,4,0H2c0,0.1,0,0.3,0,0.4 c-0.1,0.4-0.3,0.7-0.5,1c0,0,0,0,0,0C1,1.8,0.5,2,0,2v2c0.5,0,1,0.2,1.3,0.5c0,0,0,0,0,0C1.8,5,2.3,5.2,3,5.2S4.2,5,4.6,4.5 c0,0,0,0,0,0C5,4.2,5.5,4,6,4V2C5.5,2,5,1.8,4.6,1.4z"/></g>
<g transform="translate(434,527) scale(5.3216666666667)"><path d="M1.4,1.4C1.4,1.4,1.4,1.4,1.4,1.4C1.1,1.7,0.8,1.9,0.4,2C0.3,2,0.1,2,0,2v2c0.1,0,0.3,0,0.4,0 c0.4,0.1,0.7,0.3,1,0.5c0,0,0,0,0,0C1.8,5,2,5.5,2,6h2c0-0.5,0.2-1,0.5-1.3c0,0,0,0,0,0C5,4.2,5.2,3.7,5.2,3S5,1.8,4.5,1.4 c0,0,0,0,0,0C4.2,1,4,0.5,4,0H2C2,0.5,1.8,1,1.4,1.4z"/></g>
<g transform="translate(589,527) scale(5.3216666666667)"><path d="M3,0.8c-1.2,0-2.2,1-2.2,2.2s1,2.2,2.2,2.2c0.6,0,1.2-0.3,1.6-0.7C5,4.2,5.5,4,6,4V2C5.5,2,5,1.8,4.6,1.4 C4.2,1,3.6,0.8,3,0.8z"/></g>
<g transform="translate(620,527) scale(5.3216666666667)"><path d="M1.4,1.4C1.4,1.4,1.4,1.4,1.4,1.4C1.1,1.7,0.8,1.9,0.4,2C0.3,2,0.1,2,0,2v2c0.1,0,0.3,0,0.4,0 c0.4,0.1,0.7,0.3,1,0.5c0,0,0,0,0,0C1.8,5,2,5.5,2,6h2c0-0.5,0.2-1,0.5-1.3c0,0,0,0,0,0C5,4.2,5.2,3.7,5.2,3S5,1.8,4.5,1.4 c0,0,0,0,0,0C4.2,1,4,0.5,4,0H2C2,0.5,1.8,1,1.4,1.4z"/></g>
<g transform="translate(713,527) scale(5.3216666666667)"><path d="M4.6,1.4C4.6,1.4,4.6,1.4,4.6,1.4C4.2,1,4,0.5,4,0H2c0,0.5-0.2,1-0.5,1.3l0,0C1,1.8,0.8,2.3,0.8,3 c0,1.2,1,2.2,2.2,2.2c0.6,0,1.1-0.2,1.5-0.6l0,0C4.9,4.2,5.4,4,6,4V2C5.5,2,5,1.8,4.6,1.4z"/></g>
<g transform="translate(744,527) scale(5.3216666666667)"><path d="M3,5.2c1.2,0,2.2-1,2.2-2.2S4.2,0.8,3,0.8C2.4,0.8,1.8,1,1.4,1.4C1,1.8,0.5,2,0,2v2c0.5,0,1,0.2,1.4,0.6 C1.8,5,2.4,5.2,3,5.2z"/></g>
<g transform="translate(806,527) scale(5.3216666666667)"><path d="M3,0.8c-1.2,0-2.2,1-2.2,2.2s1,2.2,2.2,2.2c0.6,0,1.2-0.3,1.6-0.7C5,4.2,5.5,4,6,4V2C5.5,2,5,1.8,4.6,1.4 C4.2,1,3.6,0.8,3,0.8z"/></g>
<g transform="translate(837,527) scale(5.3216666666667)"><path d="M1.4,4.6C1.4,4.6,1.4,4.6,1.4,4.6C1.8,5,2,5.5,2,6h2c0-0.5,0.2-1,0.5-1.3l0,0C5,4.2,5.2,3.7,5.2,3 c0-1.2-1-2.2-2.2-2.2C2.4,0.8,1.9,1,1.5,1.4l0,0C1.1,1.8,0.6,2,0,2v2C0.5,4,1,4.2,1.4,4.6z"/></g>
<g transform="translate(899,527) scale(5.3216666666667)"><path d="M3,0.8c-1.2,0-2.2,1-2.2,2.2s1,2.2,2.2,2.2c0.6,0,1.2-0.3,1.6-0.7C5,4.2,5.5,4,6,4V2C5.5,2,5,1.8,4.6,1.4 C4.2,1,3.6,0.8,3,0.8z"/></g>
<g transform="translate(930,527) scale(5.3216666666667)"><path d="M1.4,4.6C1.4,4.6,1.4,4.6,1.4,4.6C1.8,5,2,5.5,2,6h2c0-0.5,0.2-1,0.5-1.3l0,0C5,4.2,5.2,3.7,5.2,3 c0-1.2-1-2.2-2.2-2.2C2.4,0.8,1.9,1,1.5,1.4l0,0C1.1,1.8,0.6,2,0,2v2C0.5,4,1,4.2,1.4,4.6z"/></g>
<g transform="translate(93,558) scale(5.3216666666667)"><path d="M4.6,4.6C4.6,4.6,4.6,4.6,4.6,4.6c0.3-0.3,0.6-0.5,1-0.6C5.7,4,5.9,4,6,4V2C5.9,2,5.7,2,5.6,2 c-0.4-0.1-0.7-0.3-1-0.5c0,0,0,0,0,0C4.2,1,4,0.5,4,0H2c0,0.5-0.2,1-0.5,1.3c0,0,0,0,0,0C1,1.8,0.8,2.3,0.8,3S1,4.2,1.5,4.6 c0,0,0,0,0,0C1.8,5,2,5.5,2,6h2C4,5.5,4.2,5,4.6,4.6z"/></g>
<g transform="translate(124,558) scale(5.3216666666667)"><path d="M0.3,4.3C0.8,5.3,1.8,6,3,6s2.2-0.7,2.7-1.7C5.8,4.1,5.9,4,6,4V2C5.9,2,5.8,1.9,5.7,1.7C5.2,0.7,4.2,0,3,0 S0.8,0.7,0.3,1.7C0.2,1.9,0.1,2,0,2v2C0.1,4,0.2,4.1,0.3,4.3z"/></g>
<g transform="translate(155,558) scale(5.3216666666667)"><path d="M1.4,1.4C1.4,1.4,1.4,1.4,1.4,1.4C1,1.8,0.5,2,0,2v2c0.5,0,1,0.2,1.3,0.5l0,0C1.8,5,2.3,5.2,3,5.2 c1.2,0,2.2-1,2.2-2.2c0-0.6-0.2-1.1-0.6-1.5l0,0C4.2,1.1,4,0.6,4,0H2C2,0.5,1.8,1,1.4,1.4z"/></g>
<g transform="translate(217,558) scale(5.3216666666667)"><path d="M4.6,1.4C4.6,1.4,4.6,1.4,4.6,1.4C4.2,1,4,0.5,4,0H2c0,0.5-0.2,1-0.5,1.3l0,0C1,1.8,0.8,2.3,0.8,3 c0,1.2,1,2.2,2.2,2.2c0.6,0,1.1-0.2,1.5-0.6l0,0C4.9,4.2,5.4,4,6,4V2C5.5,2,5,1.8,4.6,1.4z"/></g>
<g transform="translate(248,558) scale(5.3216666666667)"><path d="M0.3,4.3C0.8,5.3,1.8,6,3,6s2.2-0.7,2.7-1.7C5.8,4.1,5.9,4,6,4V2C5.9,2,5.8,1.9,5.7,1.7C5.2,0.7,4.2,0,3,0 S0.8,0.7,0.3,1.7C0.2,1.9,0.1,2,0,2v2C0.1,4,0.2,4.1,0.3,4.3z"/></g>
<g transform="translate(279,558) scale(5.3216666666667)"><path d="M0.3,4.3C0.8,5.3,1.8,6,3,6s2.2-0.7,2.7-1.7C5.8,4.1,5.9,4,6,4V2C5.9,2,5.8,1.9,5.7,1.7C5.2,0.7,4.2,0,3,0 S0.8,0.7,0.3,1.7C0.2,1.9,0.1,2,0,2v2C0.1,4,0.2,4.1,0.3,4.3z"/></g>
<g transform="translate(310,558) scale(5.3216666666667)"><path d="M4.6,1.4C4.6,1.4,4.6,1.4,4.6,1.4C4.3,1.1,4.1,0.8,4,0.4C4,0.3,4,0.1,4,0H2c0,0.1,0,0.3,0,0.4 c-0.1,0.4-0.3,0.7-0.5,1c0,0,0,0,0,0C1,1.8,0.5,2,0,2v2c0.5,0,1,0.2,1.3,0.5c0,0,0,0,0,0C1.8,5,2.3,5.2,3,5.2S4.2,5,4.6,4.5 c0,0,0,0,0,0C5,4.2,5.5,4,6,4V2C5.5,2,5,1.8,4.6,1.4z"/></g>
<g transform="translate(341,558) scale(5.3216666666667)"><path d="M1.4,1.4C1.4,1.4,1.4,1.4,1.4,1.4C1.1,1.7,0.8,1.9,0.4,2C0.3,2,0.1,2,0,2v2c0.1,0,0.3,0,0.4,0 c0.4,0.1,0.7,0.3,1,0.5c0,0,0,0,0,0C1.8,5,2,5.5,2,6h2c0-0.5,0.2-1,0.5-1.3c0,0,0,0,0,0C5,4.2,5.2,3.7,5.2,3S5,1.8,4.5,1.4 c0,0,0,0,0,0C4.2,1,4,0.5,4,0H2C2,0.5,1.8,1,1.4,1.4z"/></g>
<g transform="translate(434,558) scale(5.3216666666667)"><path d="M4.3,5.7C5.3,5.2,6,4.2,6,3S5.3,0.8,4.3,0.3C4.1,0.2,4,0.1,4,0H2c0,0.1-0.1,0.2-0.3,0.3C0.7,0.8,0,1.8,0,3 s0.7,2.2,1.7,2.7C1.9,5.8,2,5.9,2,6h2C4,5.9,4.1,5.8,4.3,5.7z"/></g>
<g transform="translate(496,558) scale(5.3216666666667)"><path d="M5.2,3c0-1.2-1-2.2-2.2-2.2S0.8,1.8,0.8,3c0,0.6,0.3,1.2,0.7,1.6C1.8,5,2,5.5,2,6h2c0-0.5,0.2-1,0.6-1.4 C5,4.2,5.2,3.6,5.2,3z"/></g>
<g transform="translate(620,558) scale(5.3216666666667)"><path d="M0.8,3c0,1.2,1,2.2,2.2,2.2s2.2-1,2.2-2.2c0-0.6-0.3-1.2-0.7-1.6C4.2,1,4,0.5,4,0H2c0,0.5-0.2,1-0.6,1.4 C1,1.8,0.8,2.4,0.8,3z"/></g>
<g transform="translate(775,558) scale(5.3216666666667)"><circle cx="3" cy="3" r="3"/></g>
<g transform="translate(837,558) scale(5.3216666666667)"><path d="M4.6,4.6C4.6,4.6,4.6,4.6,4.6,4.6c0.3-0.3,0.6-0.5,1-0.6C5.7,4,5.9,4,6,4V2C5.9,2,5.7,2,5.6,2 c-0.4-0.1-0.7-0.3-1-0.5c0,0,0,0,0,0C4.2,1,4,0.5,4,0H2c0,0.5-0.2,1-0.5,1.3c0,0,0,0,0,0C1,1.8,0.8,2.3,0.8,3S1,4.2,1.5,4.6 c0,0,0,0,0,0C1.8,5,2,5.5,2,6h2C4,5.5,4.2,5,4.6,4.6z"/></g>
<g transform="translate(868,558) scale(5.3216666666667)"><path d="M1.4,4.6C1.4,4.6,1.4,4.6,1.4,4.6C1.8,5,2,5.5,2,6h2c0-0.5,0.2-1,0.5-1.3l0,0C5,4.2,5.2,3.7,5.2,3 c0-1.2-1-2.2-2.2-2.2C2.4,0.8,1.9,1,1.5,1.4l0,0C1.1,1.8,0.6,2,0,2v2C0.5,4,1,4.2,1.4,4.6z"/></g>
<g transform="translate(930,558) scale(5.3216666666667)"><path d="M4.3,5.7C5.3,5.2,6,4.2,6,3S5.3,0.8,4.3,0.3C4.1,0.2,4,0.1,4,0H2c0,0.1-0.1,0.2-0.3,0.3C0.7,0.8,0,1.8,0,3 s0.7,2.2,1.7,2.7C1.9,5.8,2,5.9,2,6h2C4,5.9,4.1,5.8,4.3,5.7z"/></g>
<g transform="translate(62,589) scale(5.3216666666667)"><path d="M4.6,4.6C4.6,4.6,4.6,4.6,4.6,4.6C5,4.2,5.5,4,6,4V2C5.5,2,5,1.8,4.7,1.5l0,0C4.2,1,3.7,0.8,3,0.8 c-1.2,0-2.2,1-2.2,2.2c0,0.6,0.2,1.1,0.6,1.5l0,0C1.8,4.9,2,5.4,2,6h2C4,5.5,4.2,5,4.6,4.6z"/></g>
<g transform="translate(93,589) scale(5.3216666666667)"><path d="M1.4,1.4C1.4,1.4,1.4,1.4,1.4,1.4C1,1.8,0.5,2,0,2v2c0.5,0,1,0.2,1.3,0.5l0,0C1.8,5,2.3,5.2,3,5.2 c1.2,0,2.2-1,2.2-2.2c0-0.6-0.2-1.1-0.6-1.5l0,0C4.2,1.1,4,0.6,4,0H2C2,0.5,1.8,1,1.4,1.4z"/></g>
<g transform="translate(186,589) scale(5.3216666666667)"><circle cx="3" cy="3" r="3"/></g>
<g transform="translate(341,589) scale(5.3216666666667)"><path d="M4.3,5.7C5.3,5.2,6,4.2,6,3S5.3,0.8,4.3,0.3C4.1,0.2,4,0.1,4,0H2c0,0.1-0.1,0.2-0.3,0.3C0.7,0.8,0,1.8,0,3 s0.7,2.2,1.7,2.7C1.9,5.8,2,5.9,2,6h2C4,5.9,4.1,5.8,4.3,5.7z"/></g>
<g transform="translate(434,589) scale(5.3216666666667)"><path d="M4.6,1.4C4.6,1.4,4.6,1.4,4.6,1.4C4.2,1,4,0.5,4,0H2c0,0.5-0.2,1-0.5,1.3l0,0C1,1.8,0.8,2.3,0.8,3 c0,1.2,1,2.2,2.2,2.2c0.6,0,1.1-0.2,1.5-0.6l0,0C4.9,4.2,5.4,4,6,4V2C5.5,2,5,1.8,4.6,1.4z"/></g>
<g transform="translate(465,589) scale(5.3216666666667)"><path d="M1.4,4.6C1.4,4.6,1.4,4.6,1.4,4.6c0.3,0.3,0.5,0.6,0.6,1C2,5.7,2,5.9,2,6h2c0-0.1,0-0.3,0-0.4 c0.1-0.4,0.3-0.7,0.5-1c0,0,0,0,0,0C5,4.2,5.5,4,6,4V2C5.5,2,5,1.8,4.7,1.5c0,0,0,0,0,0C4.2,1,3.7,0.8,3,0.8S1.8,1,1.4,1.5 c0,0,0,0,0,0C1,1.8,0.5,2,0,2v2C0.5,4,1,4.2,1.4,4.6z"/></g>
<g transform="translate(496,589) scale(5.3216666666667)"><path d="M1.4,1.4C1.4,1.4,1.4,1.4,1.4,1.4C1,1.8,0.5,2,0,2v2c0.5,0,1,0.2,1.3,0.5l0,0C1.8,5,2.3,5.2,3,5.2 c1.2,0,2.2-1,2.2-2.2c0-0.6-0.2-1.1-0.6-1.5l0,0C4.2,1.1,4,0.6,4,0H2C2,0.5,1.8,1,1.4,1.4z"/></g>
<g transform="translate(682,589) scale(5.3216666666667)"><path d="M4.6,4.6C4.6,4.6,4.6,4.6,4.6,4.6C5,4.2,5.5,4,6,4V2C5.5,2,5,1.8,4.7,1.5l0,0C4.2,1,3.7,0.8,3,0.8 c-1.2,0-2.2,1-2.2,2.2c0,0.6,0.2,1.1,0.6,1.5l0,0C1.8,4.9,2,5.4,2,6h2C4,5.5,4.2,5,4.6,4.6z"/></g>
<g transform="translate(713,589) scale(5.3216666666667)"><path d="M3,5.2c1.2,0,2.2-1,2.2-2.2S4.2,0.8,3,0.8C2.4,0.8,1.8,1,1.4,1.4C1,1.8,0.5,2,0,2v2c0.5,0,1,0.2,1.4,0.6 C1.8,5,2.4,5.2,3,5.2z"/></g>
<g transform="translate(806,589) scale(5.3216666666667)"><path d="M4.6,4.6C4.6,4.6,4.6,4.6,4.6,4.6C5,4.2,5.5,4,6,4V2C5.5,2,5,1.8,4.7,1.5l0,0C4.2,1,3.7,0.8,3,0.8 c-1.2,0-2.2,1-2.2,2.2c0,0.6,0.2,1.1,0.6,1.5l0,0C1.8,4.9,2,5.4,2,6h2C4,5.5,4.2,5,4.6,4.6z"/></g>
<g transform="translate(837,589) scale(5.3216666666667)"><path d="M4,0H2c0,1.1-0.9,2-2,2v2c1.1,0,2,0.9,2,2h2c0-1.1,0.9-2,2-2V2C4.9,2,4,1.1,4,0z"/></g>
<g transform="translate(868,589) scale(5.3216666666667)"><path d="M4,0H2c0,1.1-0.9,2-2,2v2c1.1,0,2,0.9,2,2h2c0-1.1,0.9-2,2-2V2C4.9,2,4,1.1,4,0z"/></g>
<g transform="translate(899,589) scale(5.3216666666667)"><path d="M0.3,4.3C0.8,5.3,1.8,6,3,6s2.2-0.7,2.7-1.7C5.8,4.1,5.9,4,6,4V2C5.9,2,5.8,1.9,5.7,1.7C5.2,0.7,4.2,0,3,0 S0.8,0.7,0.3,1.7C0.2,1.9,0.1,2,0,2v2C0.1,4,0.2,4.1,0.3,4.3z"/></g>
<g transform="translate(930,589) scale(5.3216666666667)"><path d="M1.4,1.4C1.4,1.4,1.4,1.4,1.4,1.4C1,1.8,0.5,2,0,2v2c0.5,0,1,0.2,1.3,0.5l0,0C1.8,5,2.3,5.2,3,5.2 c1.2,0,2.2-1,2.2-2.2c0-0.6-0.2-1.1-0.6-1.5l0,0C4.2,1.1,4,0.6,4,0H2C2,0.5,1.8,1,1.4,1.4z"/></g>
<g transform="translate(62,620) scale(5.3216666666667)"><path d="M4.3,5.7C5.3,5.2,6,4.2,6,3S5.3,0.8,4.3,0.3C4.1,0.2,4,0.1,4,0H2c0,0.1-0.1,0.2-0.3,0.3C0.7,0.8,0,1.8,0,3 s0.7,2.2,1.7,2.7C1.9,5.8,2,5.9,2,6h2C4,5.9,4.1,5.8,4.3,5.7z"/></g>
<g transform="translate(124,620) scale(5.3216666666667)"><path d="M4.6,4.6C4.6,4.6,4.6,4.6,4.6,4.6C5,4.2,5.5,4,6,4V2C5.5,2,5,1.8,4.7,1.5l0,0C4.2,1,3.7,0.8,3,0.8 c-1.2,0-2.2,1-2.2,2.2c0,0.6,0.2,1.1,0.6,1.5l0,0C1.8,4.9,2,5.4,2,6h2C4,5.5,4.2,5,4.6,4.6z"/></g>
<g transform="translate(155,620) scale(5.3216666666667)"><path d="M1.4,4.6C1.4,4.6,1.4,4.6,1.4,4.6C1.8,5,2,5.5,2,6h2c0-0.5,0.2-1,0.5-1.3l0,0C5,4.2,5.2,3.7,5.2,3 c0-1.2-1-2.2-2.2-2.2C2.4,0.8,1.9,1,1.5,1.4l0,0C1.1,1.8,0.6,2,0,2v2C0.5,4,1,4.2,1.4,4.6z"/></g>
<g transform="translate(217,620) scale(5.3216666666667)"><path d="M3,0.8c-1.2,0-2.2,1-2.2,2.2s1,2.2,2.2,2.2c0.6,0,1.2-0.3,1.6-0.7C5,4.2,5.5,4,6,4V2C5.5,2,5,1.8,4.6,1.4 C4.2,1,3.6,0.8,3,0.8z"/></g>
<g transform="translate(248,620) scale(5.3216666666667)"><path d="M0.3,4.3C0.8,5.3,1.8,6,3,6s2.2-0.7,2.7-1.7C5.8,4.1,5.9,4,6,4V2C5.9,2,5.8,1.9,5.7,1.7C5.2,0.7,4.2,0,3,0 S0.8,0.7,0.3,1.7C0.2,1.9,0.1,2,0,2v2C0.1,4,0.2,4.1,0.3,4.3z"/></g>
<g transform="translate(279,620) scale(5.3216666666667)"><path d="M1.4,4.6C1.4,4.6,1.4,4.6,1.4,4.6C1.8,5,2,5.5,2,6h2c0-0.5,0.2-1,0.5-1.3l0,0C5,4.2,5.2,3.7,5.2,3 c0-1.2-1-2.2-2.2-2.2C2.4,0.8,1.9,1,1.5,1.4l0,0C1.1,1.8,0.6,2,0,2v2C0.5,4,1,4.2,1.4,4.6z"/></g>
<g transform="translate(341,620) scale(5.3216666666667)"><path d="M0.8,3c0,1.2,1,2.2,2.2,2.2s2.2-1,2.2-2.2c0-0.6-0.3-1.2-0.7-1.6C4.2,1,4,0.5,4,0H2c0,0.5-0.2,1-0.6,1.4 C1,1.8,0.8,2.4,0.8,3z"/></g>
<g transform="translate(403,620) scale(5.3216666666667)"><circle cx="3" cy="3" r="3"/></g>
<g transform="translate(465,620) scale(5.3216666666667)"><path d="M0.8,3c0,1.2,1,2.2,2.2,2.2s2.2-1,2.2-2.2c0-0.6-0.3-1.2-0.7-1.6C4.2,1,4,0.5,4,0H2c0,0.5-0.2,1-0.6,1.4 C1,1.8,0.8,2.4,0.8,3z"/></g>
<g transform="translate(589,620) scale(5.3216666666667)"><path d="M5.2,3c0-1.2-1-2.2-2.2-2.2S0.8,1.8,0.8,3c0,0.6,0.3,1.2,0.7,1.6C1.8,5,2,5.5,2,6h2c0-0.5,0.2-1,0.6-1.4 C5,4.2,5.2,3.6,5.2,3z"/></g>
<g transform="translate(682,620) scale(5.3216666666667)"><path d="M4.3,5.7C5.3,5.2,6,4.2,6,3S5.3,0.8,4.3,0.3C4.1,0.2,4,0.1,4,0H2c0,0.1-0.1,0.2-0.3,0.3C0.7,0.8,0,1.8,0,3 s0.7,2.2,1.7,2.7C1.9,5.8,2,5.9,2,6h2C4,5.9,4.1,5.8,4.3,5.7z"/></g>
<g transform="translate(744,620) scale(5.3216666666667)"><path d="M4.6,4.6C4.6,4.6,4.6,4.6,4.6,4.6C5,4.2,5.5,4,6,4V2C5.5,2,5,1.8,4.7,1.5l0,0C4.2,1,3.7,0.8,3,0.8 c-1.2,0-2.2,1-2.2,2.2c0,0.6,0.2,1.1,0.6,1.5l0,0C1.8,4.9,2,5.4,2,6h2C4,5.5,4.2,5,4.6,4.6z"/></g>
<g transform="translate(775,620) scale(5.3216666666667)"><path d="M1.4,4.6C1.4,4.6,1.4,4.6,1.4,4.6c0.3,0.3,0.5,0.6,0.6,1C2,5.7,2,5.9,2,6h2c0-0.1,0-0.3,0-0.4 c0.1-0.4,0.3-0.7,0.5-1c0,0,0,0,0,0C5,4.2,5.5,4,6,4V2C5.5,2,5,1.8,4.7,1.5c0,0,0,0,0,0C4.2,1,3.7,0.8,3,0.8S1.8,1,1.4,1.5 c0,0,0,0,0,0C1,1.8,0.5,2,0,2v2C0.5,4,1,4.2,1.4,4.6z"/></g>
<g transform="translate(806,620) scale(5.3216666666667)"><path d="M4,0H2c0,1.1-0.9,2-2,2v2c1.1,0,2,0.9,2,2h2c0-1.1,0.9-2,2-2V2C4.9,2,4,1.1,4,0z"/></g>
<g transform="translate(837,620) scale(5.3216666666667)"><path d="M4.6,1.4C4.6,1.4,4.6,1.4,4.6,1.4C4.3,1.1,4.1,0.8,4,0.4C4,0.3,4,0.1,4,0H2c0,0.1,0,0.3,0,0.4 c-0.1,0.4-0.3,0.7-0.5,1c0,0,0,0,0,0C1,1.8,0.5,2,0,2v2c0.5,0,1,0.2,1.3,0.5c0,0,0,0,0,0C1.8,5,2.3,5.2,3,5.2S4.2,5,4.6,4.5 c0,0,0,0,0,0C5,4.2,5.5,4,6,4V2C5.5,2,5,1.8,4.6,1.4z"/></g>
<g transform="translate(868,620) scale(5.3216666666667)"><path d="M1.4,1.4C1.4,1.4,1.4,1.4,1.4,1.4C1,1.8,0.5,2,0,2v2c0.5,0,1,0.2,1.3,0.5l0,0C1.8,5,2.3,5.2,3,5.2 c1.2,0,2.2-1,2.2-2.2c0-0.6-0.2-1.1-0.6-1.5l0,0C4.2,1.1,4,0.6,4,0H2C2,0.5,1.8,1,1.4,1.4z"/></g>
<g transform="translate(62,651) scale(5.3216666666667)"><path d="M4.3,5.7C5.3,5.2,6,4.2,6,3S5.3,0.8,4.3,0.3C4.1,0.2,4,0.1,4,0H2c0,0.1-0.1,0.2-0.3,0.3C0.7,0.8,0,1.8,0,3 s0.7,2.2,1.7,2.7C1.9,5.8,2,5.9,2,6h2C4,5.9,4.1,5.8,4.3,5.7z"/></g>
<g transform="translate(124,651) scale(5.3216666666667)"><path d="M4.6,4.6C4.6,4.6,4.6,4.6,4.6,4.6c0.3-0.3,0.6-0.5,1-0.6C5.7,4,5.9,4,6,4V2C5.9,2,5.7,2,5.6,2 c-0.4-0.1-0.7-0.3-1-0.5c0,0,0,0,0,0C4.2,1,4,0.5,4,0H2c0,0.5-0.2,1-0.5,1.3c0,0,0,0,0,0C1,1.8,0.8,2.3,0.8,3S1,4.2,1.5,4.6 c0,0,0,0,0,0C1.8,5,2,5.5,2,6h2C4,5.5,4.2,5,4.6,4.6z"/></g>
<g transform="translate(155,651) scale(5.3216666666667)"><path d="M1.4,1.4C1.4,1.4,1.4,1.4,1.4,1.4C1,1.8,0.5,2,0,2v2c0.5,0,1,0.2,1.3,0.5l0,0C1.8,5,2.3,5.2,3,5.2 c1.2,0,2.2-1,2.2-2.2c0-0.6-0.2-1.1-0.6-1.5l0,0C4.2,1.1,4,0.6,4,0H2C2,0.5,1.8,1,1.4,1.4z"/></g>
<g transform="translate(279,651) scale(5.3216666666667)"><path d="M4.6,1.4C4.6,1.4,4.6,1.4,4.6,1.4C4.2,1,4,0.5,4,0H2c0,0.5-0.2,1-0.5,1.3l0,0C1,1.8,0.8,2.3,0.8,3 c0,1.2,1,2.2,2.2,2.2c0.6,0,1.1-0.2,1.5-0.6l0,0C4.9,4.2,5.4,4,6,4V2C5.5,2,5,1.8,4.6,1.4z"/></g>
<g transform="translate(310,651) scale(5.3216666666667)"><path d="M3,5.2c1.2,0,2.2-1,2.2-2.2S4.2,0.8,3,0.8C2.4,0.8,1.8,1,1.4,1.4C1,1.8,0.5,2,0,2v2c0.5,0,1,0.2,1.4,0.6 C1.8,5,2.4,5.2,3,5.2z"/></g>
<g transform="translate(372,651) scale(5.3216666666667)"><circle cx="3" cy="3" r="3"/></g>
<g transform="translate(496,651) scale(5.3216666666667)"><path d="M3,0.8c-1.2,0-2.2,1-2.2,2.2s1,2.2,2.2,2.2c0.6,0,1.2-0.3,1.6-0.7C5,4.2,5.5,4,6,4V2C5.5,2,5,1.8,4.6,1.4 C4.2,1,3.6,0.8,3,0.8z"/></g>
<g transform="translate(527,651) scale(5.3216666666667)"><path d="M3,5.2c1.2,0,2.2-1,2.2-2.2S4.2,0.8,3,0.8C2.4,0.8,1.8,1,1.4,1.4C1,1.8,0.5,2,0,2v2c0.5,0,1,0.2,1.4,0.6 C1.8,5,2.4,5.2,3,5.2z"/></g>
<g transform="translate(589,651) scale(5.3216666666667)"><path d="M0.8,3c0,1.2,1,2.2,2.2,2.2s2.2-1,2.2-2.2c0-0.6-0.3-1.2-0.7-1.6C4.2,1,4,0.5,4,0H2c0,0.5-0.2,1-0.6,1.4 C1,1.8,0.8,2.4,0.8,3z"/></g>
<g transform="translate(651,651) scale(5.3216666666667)"><path d="M3,0.8c-1.2,0-2.2,1-2.2,2.2s1,2.2,2.2,2.2c0.6,0,1.2-0.3,1.6-0.7C5,4.2,5.5,4,6,4V2C5.5,2,5,1.8,4.6,1.4 C4.2,1,3.6,0.8,3,0.8z"/></g>
<g transform="translate(682,651) scale(5.3216666666667)"><path d="M1.4,1.4C1.4,1.4,1.4,1.4,1.4,1.4C1.1,1.7,0.8,1.9,0.4,2C0.3,2,0.1,2,0,2v2c0.1,0,0.3,0,0.4,0 c0.4,0.1,0.7,0.3,1,0.5c0,0,0,0,0,0C1.8,5,2,5.5,2,6h2c0-0.5,0.2-1,0.5-1.3c0,0,0,0,0,0C5,4.2,5.2,3.7,5.2,3S5,1.8,4.5,1.4 c0,0,0,0,0,0C4.2,1,4,0.5,4,0H2C2,0.5,1.8,1,1.4,1.4z"/></g>
<g transform="translate(744,651) scale(5.3216666666667)"><path d="M4.6,4.6C4.6,4.6,4.6,4.6,4.6,4.6c0.3-0.3,0.6-0.5,1-0.6C5.7,4,5.9,4,6,4V2C5.9,2,5.7,2,5.6,2 c-0.4-0.1-0.7-0.3-1-0.5c0,0,0,0,0,0C4.2,1,4,0.5,4,0H2c0,0.5-0.2,1-0.5,1.3c0,0,0,0,0,0C1,1.8,0.8,2.3,0.8,3S1,4.2,1.5,4.6 c0,0,0,0,0,0C1.8,5,2,5.5,2,6h2C4,5.5,4.2,5,4.6,4.6z"/></g>
<g transform="translate(775,651) scale(5.3216666666667)"><path d="M4,0H2c0,1.1-0.9,2-2,2v2c1.1,0,2,0.9,2,2h2c0-1.1,0.9-2,2-2V2C4.9,2,4,1.1,4,0z"/></g>
<g transform="translate(806,651) scale(5.3216666666667)"><path d="M1.4,1.4C1.4,1.4,1.4,1.4,1.4,1.4C1.1,1.7,0.8,1.9,0.4,2C0.3,2,0.1,2,0,2v2c0.1,0,0.3,0,0.4,0 c0.4,0.1,0.7,0.3,1,0.5c0,0,0,0,0,0C1.8,5,2,5.5,2,6h2c0-0.5,0.2-1,0.5-1.3c0,0,0,0,0,0C5,4.2,5.2,3.7,5.2,3S5,1.8,4.5,1.4 c0,0,0,0,0,0C4.2,1,4,0.5,4,0H2C2,0.5,1.8,1,1.4,1.4z"/></g>
<g transform="translate(899,651) scale(5.3216666666667)"><path d="M3,0.8c-1.2,0-2.2,1-2.2,2.2s1,2.2,2.2,2.2c0.6,0,1.2-0.3,1.6-0.7C5,4.2,5.5,4,6,4V2C5.5,2,5,1.8,4.6,1.4 C4.2,1,3.6,0.8,3,0.8z"/></g>
<g transform="translate(930,651) scale(5.3216666666667)"><path d="M3,5.2c1.2,0,2.2-1,2.2-2.2S4.2,0.8,3,0.8C2.4,0.8,1.8,1,1.4,1.4C1,1.8,0.5,2,0,2v2c0.5,0,1,0.2,1.4,0.6 C1.8,5,2.4,5.2,3,5.2z"/></g>
<g transform="translate(62,682) scale(5.3216666666667)"><path d="M0.8,3c0,1.2,1,2.2,2.2,2.2s2.2-1,2.2-2.2c0-0.6-0.3-1.2-0.7-1.6C4.2,1,4,0.5,4,0H2c0,0.5-0.2,1-0.6,1.4 C1,1.8,0.8,2.4,0.8,3z"/></g>
<g transform="translate(124,682) scale(5.3216666666667)"><path d="M0.8,3c0,1.2,1,2.2,2.2,2.2s2.2-1,2.2-2.2c0-0.6-0.3-1.2-0.7-1.6C4.2,1,4,0.5,4,0H2c0,0.5-0.2,1-0.6,1.4 C1,1.8,0.8,2.4,0.8,3z"/></g>
<g transform="translate(186,682) scale(5.3216666666667)"><circle cx="3" cy="3" r="3"/></g>
<g transform="translate(248,682) scale(5.3216666666667)"><circle cx="3" cy="3" r="3"/></g>
<g transform="translate(403,682) scale(5.3216666666667)"><path d="M4.6,4.6C4.6,4.6,4.6,4.6,4.6,4.6C5,4.2,5.5,4,6,4V2C5.5,2,5,1.8,4.7,1.5l0,0C4.2,1,3.7,0.8,3,0.8 c-1.2,0-2.2,1-2.2,2.2c0,0.6,0.2,1.1,0.6,1.5l0,0C1.8,4.9,2,5.4,2,6h2C4,5.5,4.2,5,4.6,4.6z"/></g>
<g transform="translate(434,682) scale(5.3216666666667)"><path d="M1.4,4.6C1.4,4.6,1.4,4.6,1.4,4.6c0.3,0.3,0.5,0.6,0.6,1C2,5.7,2,5.9,2,6h2c0-0.1,0-0.3,0-0.4 c0.1-0.4,0.3-0.7,0.5-1c0,0,0,0,0,0C5,4.2,5.5,4,6,4V2C5.5,2,5,1.8,4.7,1.5c0,0,0,0,0,0C4.2,1,3.7,0.8,3,0.8S1.8,1,1.4,1.5 c0,0,0,0,0,0C1,1.8,0.5,2,0,2v2C0.5,4,1,4.2,1.4,4.6z"/></g>
<g transform="translate(465,682) scale(5.3216666666667)"><path d="M3,5.2c1.2,0,2.2-1,2.2-2.2S4.2,0.8,3,0.8C2.4,0.8,1.8,1,1.4,1.4C1,1.8,0.5,2,0,2v2c0.5,0,1,0.2,1.4,0.6 C1.8,5,2.4,5.2,3,5.2z"/></g>
<g transform="translate(620,682) scale(5.3216666666667)"><path d="M5.2,3c0-1.2-1-2.2-2.2-2.2S0.8,1.8,0.8,3c0,0.6,0.3,1.2,0.7,1.6C1.8,5,2,5.5,2,6h2c0-0.5,0.2-1,0.6-1.4 C5,4.2,5.2,3.6,5.2,3z"/></g>
<g transform="translate(682,682) scale(5.3216666666667)"><path d="M4.6,4.6C4.6,4.6,4.6,4.6,4.6,4.6c0.3-0.3,0.6-0.5,1-0.6C5.7,4,5.9,4,6,4V2C5.9,2,5.7,2,5.6,2 c-0.4-0.1-0.7-0.3-1-0.5c0,0,0,0,0,0C4.2,1,4,0.5,4,0H2c0,0.5-0.2,1-0.5,1.3c0,0,0,0,0,0C1,1.8,0.8,2.3,0.8,3S1,4.2,1.5,4.6 c0,0,0,0,0,0C1.8,5,2,5.5,2,6h2C4,5.5,4.2,5,4.6,4.6z"/></g>
<g transform="translate(713,682) scale(5.3216666666667)"><path d="M0.3,4.3C0.8,5.3,1.8,6,3,6s2.2-0.7,2.7-1.7C5.8,4.1,5.9,4,6,4V2C5.9,2,5.8,1.9,5.7,1.7C5.2,0.7,4.2,0,3,0 S0.8,0.7,0.3,1.7C0.2,1.9,0.1,2,0,2v2C0.1,4,0.2,4.1,0.3,4.3z"/></g>
<g transform="translate(744,682) scale(5.3216666666667)"><path d="M4.6,1.4C4.6,1.4,4.6,1.4,4.6,1.4C4.3,1.1,4.1,0.8,4,0.4C4,0.3,4,0.1,4,0H2c0,0.1,0,0.3,0,0.4 c-0.1,0.4-0.3,0.7-0.5,1c0,0,0,0,0,0C1,1.8,0.5,2,0,2v2c0.5,0,1,0.2,1.3,0.5c0,0,0,0,0,0C1.8,5,2.3,5.2,3,5.2S4.2,5,4.6,4.5 c0,0,0,0,0,0C5,4.2,5.5,4,6,4V2C5.5,2,5,1.8,4.6,1.4z"/></g>
<g transform="translate(775,682) scale(5.3216666666667)"><path d="M4.6,1.4C4.6,1.4,4.6,1.4,4.6,1.4C4.3,1.1,4.1,0.8,4,0.4C4,0.3,4,0.1,4,0H2c0,0.1,0,0.3,0,0.4 c-0.1,0.4-0.3,0.7-0.5,1c0,0,0,0,0,0C1,1.8,0.5,2,0,2v2c0.5,0,1,0.2,1.3,0.5c0,0,0,0,0,0C1.8,5,2.3,5.2,3,5.2S4.2,5,4.6,4.5 c0,0,0,0,0,0C5,4.2,5.5,4,6,4V2C5.5,2,5,1.8,4.6,1.4z"/></g>
<g transform="translate(806,682) scale(5.3216666666667)"><path d="M1.4,1.4C1.4,1.4,1.4,1.4,1.4,1.4C1.1,1.7,0.8,1.9,0.4,2C0.3,2,0.1,2,0,2v2c0.1,0,0.3,0,0.4,0 c0.4,0.1,0.7,0.3,1,0.5c0,0,0,0,0,0C1.8,5,2,5.5,2,6h2c0-0.5,0.2-1,0.5-1.3c0,0,0,0,0,0C5,4.2,5.2,3.7,5.2,3S5,1.8,4.5,1.4 c0,0,0,0,0,0C4.2,1,4,0.5,4,0H2C2,0.5,1.8,1,1.4,1.4z"/></g>
<g transform="translate(868,682) scale(5.3216666666667)"><circle cx="3" cy="3" r="3"/></g>
<g transform="translate(310,713) scale(5.3216666666667)"><path d="M3,0.8c-1.2,0-2.2,1-2.2,2.2s1,2.2,2.2,2.2c0.6,0,1.2-0.3,1.6-0.7C5,4.2,5.5,4,6,4V2C5.5,2,5,1.8,4.6,1.4 C4.2,1,3.6,0.8,3,0.8z"/></g>
<g transform="translate(341,713) scale(5.3216666666667)"><path d="M1.4,4.6C1.4,4.6,1.4,4.6,1.4,4.6C1.8,5,2,5.5,2,6h2c0-0.5,0.2-1,0.5-1.3l0,0C5,4.2,5.2,3.7,5.2,3 c0-1.2-1-2.2-2.2-2.2C2.4,0.8,1.9,1,1.5,1.4l0,0C1.1,1.8,0.6,2,0,2v2C0.5,4,1,4.2,1.4,4.6z"/></g>
<g transform="translate(403,713) scale(5.3216666666667)"><path d="M4.6,1.4C4.6,1.4,4.6,1.4,4.6,1.4C4.2,1,4,0.5,4,0H2c0,0.5-0.2,1-0.5,1.3l0,0C1,1.8,0.8,2.3,0.8,3 c0,1.2,1,2.2,2.2,2.2c0.6,0,1.1-0.2,1.5-0.6l0,0C4.9,4.2,5.4,4,6,4V2C5.5,2,5,1.8,4.6,1.4z"/></g>
<g transform="translate(434,713) scale(5.3216666666667)"><path d="M1.4,1.4C1.4,1.4,1.4,1.4,1.4,1.4C1.1,1.7,0.8,1.9,0.4,2C0.3,2,0.1,2,0,2v2c0.1,0,0.3,0,0.4,0 c0.4,0.1,0.7,0.3,1,0.5c0,0,0,0,0,0C1.8,5,2,5.5,2,6h2c0-0.5,0.2-1,0.5-1.3c0,0,0,0,0,0C5,4.2,5.2,3.7,5.2,3S5,1.8,4.5,1.4 c0,0,0,0,0,0C4.2,1,4,0.5,4,0H2C2,0.5,1.8,1,1.4,1.4z"/></g>
<g transform="translate(527,713) scale(5.3216666666667)"><path d="M3,0.8c-1.2,0-2.2,1-2.2,2.2s1,2.2,2.2,2.2c0.6,0,1.2-0.3,1.6-0.7C5,4.2,5.5,4,6,4V2C5.5,2,5,1.8,4.6,1.4 C4.2,1,3.6,0.8,3,0.8z"/></g>
<g transform="translate(558,713) scale(5.3216666666667)"><path d="M1.4,4.6C1.4,4.6,1.4,4.6,1.4,4.6C1.8,5,2,5.5,2,6h2c0-0.5,0.2-1,0.5-1.3l0,0C5,4.2,5.2,3.7,5.2,3 c0-1.2-1-2.2-2.2-2.2C2.4,0.8,1.9,1,1.5,1.4l0,0C1.1,1.8,0.6,2,0,2v2C0.5,4,1,4.2,1.4,4.6z"/></g>
<g transform="translate(620,713) scale(5.3216666666667)"><path d="M4.6,1.4C4.6,1.4,4.6,1.4,4.6,1.4C4.2,1,4,0.5,4,0H2c0,0.5-0.2,1-0.5,1.3l0,0C1,1.8,0.8,2.3,0.8,3 c0,1.2,1,2.2,2.2,2.2c0.6,0,1.1-0.2,1.5-0.6l0,0C4.9,4.2,5.4,4,6,4V2C5.5,2,5,1.8,4.6,1.4z"/></g>
<g transform="translate(651,713) scale(5.3216666666667)"><path d="M1.4,4.6C1.4,4.6,1.4,4.6,1.4,4.6c0.3,0.3,0.5,0.6,0.6,1C2,5.7,2,5.9,2,6h2c0-0.1,0-0.3,0-0.4 c0.1-0.4,0.3-0.7,0.5-1c0,0,0,0,0,0C5,4.2,5.5,4,6,4V2C5.5,2,5,1.8,4.7,1.5c0,0,0,0,0,0C4.2,1,3.7,0.8,3,0.8S1.8,1,1.4,1.5 c0,0,0,0,0,0C1,1.8,0.5,2,0,2v2C0.5,4,1,4.2,1.4,4.6z"/></g>
<g transform="translate(682,713) scale(5.3216666666667)"><path d="M1.4,1.4C1.4,1.4,1.4,1.4,1.4,1.4C1.1,1.7,0.8,1.9,0.4,2C0.3,2,0.1,2,0,2v2c0.1,0,0.3,0,0.4,0 c0.4,0.1,0.7,0.3,1,0.5c0,0,0,0,0,0C1.8,5,2,5.5,2,6h2c0-0.5,0.2-1,0.5-1.3c0,0,0,0,0,0C5,4.2,5.2,3.7,5.2,3S5,1.8,4.5,1.4 c0,0,0,0,0,0C4.2,1,4,0.5,4,0H2C2,0.5,1.8,1,1.4,1.4z"/></g>
<g transform="translate(806,713) scale(5.3216666666667)"><path d="M4.6,4.6C4.6,4.6,4.6,4.6,4.6,4.6c0.3-0.3,0.6-0.5,1-0.6C5.7,4,5.9,4,6,4V2C5.9,2,5.7,2,5.6,2 c-0.4-0.1-0.7-0.3-1-0.5c0,0,0,0,0,0C4.2,1,4,0.5,4,0H2c0,0.5-0.2,1-0.5,1.3c0,0,0,0,0,0C1,1.8,0.8,2.3,0.8,3S1,4.2,1.5,4.6 c0,0,0,0,0,0C1.8,5,2,5.5,2,6h2C4,5.5,4.2,5,4.6,4.6z"/></g>
<g transform="translate(837,713) scale(5.3216666666667)"><path d="M3,5.2c1.2,0,2.2-1,2.2-2.2S4.2,0.8,3,0.8C2.4,0.8,1.8,1,1.4,1.4C1,1.8,0.5,2,0,2v2c0.5,0,1,0.2,1.4,0.6 C1.8,5,2.4,5.2,3,5.2z"/></g>
<g transform="translate(899,713) scale(5.3216666666667)"><path d="M4.6,4.6C4.6,4.6,4.6,4.6,4.6,4.6C5,4.2,5.5,4,6,4V2C5.5,2,5,1.8,4.7,1.5l0,0C4.2,1,3.7,0.8,3,0.8 c-1.2,0-2.2,1-2.2,2.2c0,0.6,0.2,1.1,0.6,1.5l0,0C1.8,4.9,2,5.4,2,6h2C4,5.5,4.2,5,4.6,4.6z"/></g>
<g transform="translate(930,713) scale(5.3216666666667)"><path d="M3,5.2c1.2,0,2.2-1,2.2-2.2S4.2,0.8,3,0.8C2.4,0.8,1.8,1,1.4,1.4C1,1.8,0.5,2,0,2v2c0.5,0,1,0.2,1.4,0.6 C1.8,5,2.4,5.2,3,5.2z"/></g>
<g transform="translate(341,744) scale(5.3216666666667)"><path d="M4.3,5.7C5.3,5.2,6,4.2,6,3S5.3,0.8,4.3,0.3C4.1,0.2,4,0.1,4,0H2c0,0.1-0.1,0.2-0.3,0.3C0.7,0.8,0,1.8,0,3 s0.7,2.2,1.7,2.7C1.9,5.8,2,5.9,2,6h2C4,5.9,4.1,5.8,4.3,5.7z"/></g>
<g transform="translate(434,744) scale(5.3216666666667)"><path d="M4.6,4.6C4.6,4.6,4.6,4.6,4.6,4.6c0.3-0.3,0.6-0.5,1-0.6C5.7,4,5.9,4,6,4V2C5.9,2,5.7,2,5.6,2 c-0.4-0.1-0.7-0.3-1-0.5c0,0,0,0,0,0C4.2,1,4,0.5,4,0H2c0,0.5-0.2,1-0.5,1.3c0,0,0,0,0,0C1,1.8,0.8,2.3,0.8,3S1,4.2,1.5,4.6 c0,0,0,0,0,0C1.8,5,2,5.5,2,6h2C4,5.5,4.2,5,4.6,4.6z"/></g>
<g transform="translate(465,744) scale(5.3216666666667)"><path d="M1.4,4.6C1.4,4.6,1.4,4.6,1.4,4.6c0.3,0.3,0.5,0.6,0.6,1C2,5.7,2,5.9,2,6h2c0-0.1,0-0.3,0-0.4 c0.1-0.4,0.3-0.7,0.5-1c0,0,0,0,0,0C5,4.2,5.5,4,6,4V2C5.5,2,5,1.8,4.7,1.5c0,0,0,0,0,0C4.2,1,3.7,0.8,3,0.8S1.8,1,1.4,1.5 c0,0,0,0,0,0C1,1.8,0.5,2,0,2v2C0.5,4,1,4.2,1.4,4.6z"/></g>
<g transform="translate(496,744) scale(5.3216666666667)"><path d="M1.4,4.6C1.4,4.6,1.4,4.6,1.4,4.6C1.8,5,2,5.5,2,6h2c0-0.5,0.2-1,0.5-1.3l0,0C5,4.2,5.2,3.7,5.2,3 c0-1.2-1-2.2-2.2-2.2C2.4,0.8,1.9,1,1.5,1.4l0,0C1.1,1.8,0.6,2,0,2v2C0.5,4,1,4.2,1.4,4.6z"/></g>
<g transform="translate(558,744) scale(5.3216666666667)"><path d="M4.6,1.4C4.6,1.4,4.6,1.4,4.6,1.4C4.2,1,4,0.5,4,0H2c0,0.5-0.2,1-0.5,1.3l0,0C1,1.8,0.8,2.3,0.8,3 c0,1.2,1,2.2,2.2,2.2c0.6,0,1.1-0.2,1.5-0.6l0,0C4.9,4.2,5.4,4,6,4V2C5.5,2,5,1.8,4.6,1.4z"/></g>
<g transform="translate(589,744) scale(5.3216666666667)"><path d="M3,5.2c1.2,0,2.2-1,2.2-2.2S4.2,0.8,3,0.8C2.4,0.8,1.8,1,1.4,1.4C1,1.8,0.5,2,0,2v2c0.5,0,1,0.2,1.4,0.6 C1.8,5,2.4,5.2,3,5.2z"/></g>
<g transform="translate(651,744) scale(5.3216666666667)"><path d="M4.6,4.6C4.6,4.6,4.6,4.6,4.6,4.6c0.3-0.3,0.6-0.5,1-0.6C5.7,4,5.9,4,6,4V2C5.9,2,5.7,2,5.6,2 c-0.4-0.1-0.7-0.3-1-0.5c0,0,0,0,0,0C4.2,1,4,0.5,4,0H2c0,0.5-0.2,1-0.5,1.3c0,0,0,0,0,0C1,1.8,0.8,2.3,0.8,3S1,4.2,1.5,4.6 c0,0,0,0,0,0C1.8,5,2,5.5,2,6h2C4,5.5,4.2,5,4.6,4.6z"/></g>
<g transform="translate(682,744) scale(5.3216666666667)"><path d="M1.4,1.4C1.4,1.4,1.4,1.4,1.4,1.4C1.1,1.7,0.8,1.9,0.4,2C0.3,2,0.1,2,0,2v2c0.1,0,0.3,0,0.4,0 c0.4,0.1,0.7,0.3,1,0.5c0,0,0,0,0,0C1.8,5,2,5.5,2,6h2c0-0.5,0.2-1,0.5-1.3c0,0,0,0,0,0C5,4.2,5.2,3.7,5.2,3S5,1.8,4.5,1.4 c0,0,0,0,0,0C4.2,1,4,0.5,4,0H2C2,0.5,1.8,1,1.4,1.4z"/></g>
<g transform="translate(744,744) scale(5.3216666666667)"><circle cx="3" cy="3" r="3"/></g>
<g transform="translate(806,744) scale(5.3216666666667)"><path d="M4.3,5.7C5.3,5.2,6,4.2,6,3S5.3,0.8,4.3,0.3C4.1,0.2,4,0.1,4,0H2c0,0.1-0.1,0.2-0.3,0.3C0.7,0.8,0,1.8,0,3 s0.7,2.2,1.7,2.7C1.9,5.8,2,5.9,2,6h2C4,5.9,4.1,5.8,4.3,5.7z"/></g>
<g transform="translate(899,744) scale(5.3216666666667)"><path d="M0.8,3c0,1.2,1,2.2,2.2,2.2s2.2-1,2.2-2.2c0-0.6-0.3-1.2-0.7-1.6C4.2,1,4,0.5,4,0H2c0,0.5-0.2,1-0.6,1.4 C1,1.8,0.8,2.4,0.8,3z"/></g>
<g transform="translate(341,775) scale(5.3216666666667)"><path d="M4.3,5.7C5.3,5.2,6,4.2,6,3S5.3,0.8,4.3,0.3C4.1,0.2,4,0.1,4,0H2c0,0.1-0.1,0.2-0.3,0.3C0.7,0.8,0,1.8,0,3 s0.7,2.2,1.7,2.7C1.9,5.8,2,5.9,2,6h2C4,5.9,4.1,5.8,4.3,5.7z"/></g>
<g transform="translate(434,775) scale(5.3216666666667)"><path d="M4.6,1.4C4.6,1.4,4.6,1.4,4.6,1.4C4.2,1,4,0.5,4,0H2c0,0.5-0.2,1-0.5,1.3l0,0C1,1.8,0.8,2.3,0.8,3 c0,1.2,1,2.2,2.2,2.2c0.6,0,1.1-0.2,1.5-0.6l0,0C4.9,4.2,5.4,4,6,4V2C5.5,2,5,1.8,4.6,1.4z"/></g>
<g transform="translate(465,775) scale(5.3216666666667)"><path d="M4,0H2c0,1.1-0.9,2-2,2v2c1.1,0,2,0.9,2,2h2c0-1.1,0.9-2,2-2V2C4.9,2,4,1.1,4,0z"/></g>
<g transform="translate(496,775) scale(5.3216666666667)"><path d="M1.4,1.4C1.4,1.4,1.4,1.4,1.4,1.4C1.1,1.7,0.8,1.9,0.4,2C0.3,2,0.1,2,0,2v2c0.1,0,0.3,0,0.4,0 c0.4,0.1,0.7,0.3,1,0.5c0,0,0,0,0,0C1.8,5,2,5.5,2,6h2c0-0.5,0.2-1,0.5-1.3c0,0,0,0,0,0C5,4.2,5.2,3.7,5.2,3S5,1.8,4.5,1.4 c0,0,0,0,0,0C4.2,1,4,0.5,4,0H2C2,0.5,1.8,1,1.4,1.4z"/></g>
<g transform="translate(651,775) scale(5.3216666666667)"><path d="M4.6,1.4C4.6,1.4,4.6,1.4,4.6,1.4C4.2,1,4,0.5,4,0H2c0,0.5-0.2,1-0.5,1.3l0,0C1,1.8,0.8,2.3,0.8,3 c0,1.2,1,2.2,2.2,2.2c0.6,0,1.1-0.2,1.5-0.6l0,0C4.9,4.2,5.4,4,6,4V2C5.5,2,5,1.8,4.6,1.4z"/></g>
<g transform="translate(682,775) scale(5.3216666666667)"><path d="M1.4,1.4C1.4,1.4,1.4,1.4,1.4,1.4C1.1,1.7,0.8,1.9,0.4,2C0.3,2,0.1,2,0,2v2c0.1,0,0.3,0,0.4,0 c0.4,0.1,0.7,0.3,1,0.5c0,0,0,0,0,0C1.8,5,2,5.5,2,6h2c0-0.5,0.2-1,0.5-1.3c0,0,0,0,0,0C5,4.2,5.2,3.7,5.2,3S5,1.8,4.5,1.4 c0,0,0,0,0,0C4.2,1,4,0.5,4,0H2C2,0.5,1.8,1,1.4,1.4z"/></g>
<g transform="translate(806,775) scale(5.3216666666667)"><path d="M4.6,4.6C4.6,4.6,4.6,4.6,4.6,4.6c0.3-0.3,0.6-0.5,1-0.6C5.7,4,5.9,4,6,4V2C5.9,2,5.7,2,5.6,2 c-0.4-0.1-0.7-0.3-1-0.5c0,0,0,0,0,0C4.2,1,4,0.5,4,0H2c0,0.5-0.2,1-0.5,1.3c0,0,0,0,0,0C1,1.8,0.8,2.3,0.8,3S1,4.2,1.5,4.6 c0,0,0,0,0,0C1.8,5,2,5.5,2,6h2C4,5.5,4.2,5,4.6,4.6z"/></g>
<g transform="translate(837,775) scale(5.3216666666667)"><path d="M1.4,4.6C1.4,4.6,1.4,4.6,1.4,4.6C1.8,5,2,5.5,2,6h2c0-0.5,0.2-1,0.5-1.3l0,0C5,4.2,5.2,3.7,5.2,3 c0-1.2-1-2.2-2.2-2.2C2.4,0.8,1.9,1,1.5,1.4l0,0C1.1,1.8,0.6,2,0,2v2C0.5,4,1,4.2,1.4,4.6z"/></g>
<g transform="translate(310,806) scale(5.3216666666667)"><path d="M4.6,4.6C4.6,4.6,4.6,4.6,4.6,4.6C5,4.2,5.5,4,6,4V2C5.5,2,5,1.8,4.7,1.5l0,0C4.2,1,3.7,0.8,3,0.8 c-1.2,0-2.2,1-2.2,2.2c0,0.6,0.2,1.1,0.6,1.5l0,0C1.8,4.9,2,5.4,2,6h2C4,5.5,4.2,5,4.6,4.6z"/></g>
<g transform="translate(341,806) scale(5.3216666666667)"><path d="M4.6,1.4C4.6,1.4,4.6,1.4,4.6,1.4C4.3,1.1,4.1,0.8,4,0.4C4,0.3,4,0.1,4,0H2c0,0.1,0,0.3,0,0.4 c-0.1,0.4-0.3,0.7-0.5,1c0,0,0,0,0,0C1,1.8,0.5,2,0,2v2c0.5,0,1,0.2,1.3,0.5c0,0,0,0,0,0C1.8,5,2.3,5.2,3,5.2S4.2,5,4.6,4.5 c0,0,0,0,0,0C5,4.2,5.5,4,6,4V2C5.5,2,5,1.8,4.6,1.4z"/></g>
<g transform="translate(372,806) scale(5.3216666666667)"><path d="M1.4,4.6C1.4,4.6,1.4,4.6,1.4,4.6C1.8,5,2,5.5,2,6h2c0-0.5,0.2-1,0.5-1.3l0,0C5,4.2,5.2,3.7,5.2,3 c0-1.2-1-2.2-2.2-2.2C2.4,0.8,1.9,1,1.5,1.4l0,0C1.1,1.8,0.6,2,0,2v2C0.5,4,1,4.2,1.4,4.6z"/></g>
<g transform="translate(465,806) scale(5.3216666666667)"><path d="M4.6,4.6C4.6,4.6,4.6,4.6,4.6,4.6c0.3-0.3,0.6-0.5,1-0.6C5.7,4,5.9,4,6,4V2C5.9,2,5.7,2,5.6,2 c-0.4-0.1-0.7-0.3-1-0.5c0,0,0,0,0,0C4.2,1,4,0.5,4,0H2c0,0.5-0.2,1-0.5,1.3c0,0,0,0,0,0C1,1.8,0.8,2.3,0.8,3S1,4.2,1.5,4.6 c0,0,0,0,0,0C1.8,5,2,5.5,2,6h2C4,5.5,4.2,5,4.6,4.6z"/></g>
<g transform="translate(496,806) scale(5.3216666666667)"><path d="M4.6,1.4C4.6,1.4,4.6,1.4,4.6,1.4C4.3,1.1,4.1,0.8,4,0.4C4,0.3,4,0.1,4,0H2c0,0.1,0,0.3,0,0.4 c-0.1,0.4-0.3,0.7-0.5,1c0,0,0,0,0,0C1,1.8,0.5,2,0,2v2c0.5,0,1,0.2,1.3,0.5c0,0,0,0,0,0C1.8,5,2.3,5.2,3,5.2S4.2,5,4.6,4.5 c0,0,0,0,0,0C5,4.2,5.5,4,6,4V2C5.5,2,5,1.8,4.6,1.4z"/></g>
<g transform="translate(527,806) scale(5.3216666666667)"><path d="M1.4,4.6C1.4,4.6,1.4,4.6,1.4,4.6C1.8,5,2,5.5,2,6h2c0-0.5,0.2-1,0.5-1.3l0,0C5,4.2,5.2,3.7,5.2,3 c0-1.2-1-2.2-2.2-2.2C2.4,0.8,1.9,1,1.5,1.4l0,0C1.1,1.8,0.6,2,0,2v2C0.5,4,1,4.2,1.4,4.6z"/></g>
<g transform="translate(589,806) scale(5.3216666666667)"><path d="M3,0.8c-1.2,0-2.2,1-2.2,2.2s1,2.2,2.2,2.2c0.6,0,1.2-0.3,1.6-0.7C5,4.2,5.5,4,6,4V2C5.5,2,5,1.8,4.6,1.4 C4.2,1,3.6,0.8,3,0.8z"/></g>
<g transform="translate(620,806) scale(5.3216666666667)"><path d="M1.4,4.6C1.4,4.6,1.4,4.6,1.4,4.6C1.8,5,2,5.5,2,6h2c0-0.5,0.2-1,0.5-1.3l0,0C5,4.2,5.2,3.7,5.2,3 c0-1.2-1-2.2-2.2-2.2C2.4,0.8,1.9,1,1.5,1.4l0,0C1.1,1.8,0.6,2,0,2v2C0.5,4,1,4.2,1.4,4.6z"/></g>
<g transform="translate(682,806) scale(5.3216666666667)"><path d="M4.6,4.6C4.6,4.6,4.6,4.6,4.6,4.6c0.3-0.3,0.6-0.5,1-0.6C5.7,4,5.9,4,6,4V2C5.9,2,5.7,2,5.6,2 c-0.4-0.1-0.7-0.3-1-0.5c0,0,0,0,0,0C4.2,1,4,0.5,4,0H2c0,0.5-0.2,1-0.5,1.3c0,0,0,0,0,0C1,1.8,0.8,2.3,0.8,3S1,4.2,1.5,4.6 c0,0,0,0,0,0C1.8,5,2,5.5,2,6h2C4,5.5,4.2,5,4.6,4.6z"/></g>
<g transform="translate(713,806) scale(5.3216666666667)"><path d="M1.4,4.6C1.4,4.6,1.4,4.6,1.4,4.6c0.3,0.3,0.5,0.6,0.6,1C2,5.7,2,5.9,2,6h2c0-0.1,0-0.3,0-0.4 c0.1-0.4,0.3-0.7,0.5-1c0,0,0,0,0,0C5,4.2,5.5,4,6,4V2C5.5,2,5,1.8,4.7,1.5c0,0,0,0,0,0C4.2,1,3.7,0.8,3,0.8S1.8,1,1.4,1.5 c0,0,0,0,0,0C1,1.8,0.5,2,0,2v2C0.5,4,1,4.2,1.4,4.6z"/></g>
<g transform="translate(744,806) scale(5.3216666666667)"><path d="M0.3,4.3C0.8,5.3,1.8,6,3,6s2.2-0.7,2.7-1.7C5.8,4.1,5.9,4,6,4V2C5.9,2,5.8,1.9,5.7,1.7C5.2,0.7,4.2,0,3,0 S0.8,0.7,0.3,1.7C0.2,1.9,0.1,2,0,2v2C0.1,4,0.2,4.1,0.3,4.3z"/></g>
<g transform="translate(775,806) scale(5.3216666666667)"><path d="M1.4,4.6C1.4,4.6,1.4,4.6,1.4,4.6c0.3,0.3,0.5,0.6,0.6,1C2,5.7,2,5.9,2,6h2c0-0.1,0-0.3,0-0.4 c0.1-0.4,0.3-0.7,0.5-1c0,0,0,0,0,0C5,4.2,5.5,4,6,4V2C5.5,2,5,1.8,4.7,1.5c0,0,0,0,0,0C4.2,1,3.7,0.8,3,0.8S1.8,1,1.4,1.5 c0,0,0,0,0,0C1,1.8,0.5,2,0,2v2C0.5,4,1,4.2,1.4,4.6z"/></g>
<g transform="translate(806,806) scale(5.3216666666667)"><path d="M4.6,1.4C4.6,1.4,4.6,1.4,4.6,1.4C4.3,1.1,4.1,0.8,4,0.4C4,0.3,4,0.1,4,0H2c0,0.1,0,0.3,0,0.4 c-0.1,0.4-0.3,0.7-0.5,1c0,0,0,0,0,0C1,1.8,0.5,2,0,2v2c0.5,0,1,0.2,1.3,0.5c0,0,0,0,0,0C1.8,5,2.3,5.2,3,5.2S4.2,5,4.6,4.5 c0,0,0,0,0,0C5,4.2,5.5,4,6,4V2C5.5,2,5,1.8,4.6,1.4z"/></g>
<g transform="translate(837,806) scale(5.3216666666667)"><path d="M4,0H2c0,1.1-0.9,2-2,2v2c1.1,0,2,0.9,2,2h2c0-1.1,0.9-2,2-2V2C4.9,2,4,1.1,4,0z"/></g>
<g transform="translate(868,806) scale(5.3216666666667)"><path d="M1.4,4.6C1.4,4.6,1.4,4.6,1.4,4.6C1.8,5,2,5.5,2,6h2c0-0.5,0.2-1,0.5-1.3l0,0C5,4.2,5.2,3.7,5.2,3 c0-1.2-1-2.2-2.2-2.2C2.4,0.8,1.9,1,1.5,1.4l0,0C1.1,1.8,0.6,2,0,2v2C0.5,4,1,4.2,1.4,4.6z"/></g>
<g transform="translate(310,837) scale(5.3216666666667)"><path d="M4.3,5.7C5.3,5.2,6,4.2,6,3S5.3,0.8,4.3,0.3C4.1,0.2,4,0.1,4,0H2c0,0.1-0.1,0.2-0.3,0.3C0.7,0.8,0,1.8,0,3 s0.7,2.2,1.7,2.7C1.9,5.8,2,5.9,2,6h2C4,5.9,4.1,5.8,4.3,5.7z"/></g>
<g transform="translate(372,837) scale(5.3216666666667)"><path d="M0.8,3c0,1.2,1,2.2,2.2,2.2s2.2-1,2.2-2.2c0-0.6-0.3-1.2-0.7-1.6C4.2,1,4,0.5,4,0H2c0,0.5-0.2,1-0.6,1.4 C1,1.8,0.8,2.4,0.8,3z"/></g>
<g transform="translate(434,837) scale(5.3216666666667)"><path d="M4.6,4.6C4.6,4.6,4.6,4.6,4.6,4.6C5,4.2,5.5,4,6,4V2C5.5,2,5,1.8,4.7,1.5l0,0C4.2,1,3.7,0.8,3,0.8 c-1.2,0-2.2,1-2.2,2.2c0,0.6,0.2,1.1,0.6,1.5l0,0C1.8,4.9,2,5.4,2,6h2C4,5.5,4.2,5,4.6,4.6z"/></g>
<g transform="translate(465,837) scale(5.3216666666667)"><path d="M1.4,1.4C1.4,1.4,1.4,1.4,1.4,1.4C1,1.8,0.5,2,0,2v2c0.5,0,1,0.2,1.3,0.5l0,0C1.8,5,2.3,5.2,3,5.2 c1.2,0,2.2-1,2.2-2.2c0-0.6-0.2-1.1-0.6-1.5l0,0C4.2,1.1,4,0.6,4,0H2C2,0.5,1.8,1,1.4,1.4z"/></g>
<g transform="translate(527,837) scale(5.3216666666667)"><path d="M4.6,4.6C4.6,4.6,4.6,4.6,4.6,4.6c0.3-0.3,0.6-0.5,1-0.6C5.7,4,5.9,4,6,4V2C5.9,2,5.7,2,5.6,2 c-0.4-0.1-0.7-0.3-1-0.5c0,0,0,0,0,0C4.2,1,4,0.5,4,0H2c0,0.5-0.2,1-0.5,1.3c0,0,0,0,0,0C1,1.8,0.8,2.3,0.8,3S1,4.2,1.5,4.6 c0,0,0,0,0,0C1.8,5,2,5.5,2,6h2C4,5.5,4.2,5,4.6,4.6z"/></g>
<g transform="translate(558,837) scale(5.3216666666667)"><path d="M1.4,4.6C1.4,4.6,1.4,4.6,1.4,4.6C1.8,5,2,5.5,2,6h2c0-0.5,0.2-1,0.5-1.3l0,0C5,4.2,5.2,3.7,5.2,3 c0-1.2-1-2.2-2.2-2.2C2.4,0.8,1.9,1,1.5,1.4l0,0C1.1,1.8,0.6,2,0,2v2C0.5,4,1,4.2,1.4,4.6z"/></g>
<g transform="translate(620,837) scale(5.3216666666667)"><path d="M4.6,4.6C4.6,4.6,4.6,4.6,4.6,4.6c0.3-0.3,0.6-0.5,1-0.6C5.7,4,5.9,4,6,4V2C5.9,2,5.7,2,5.6,2 c-0.4-0.1-0.7-0.3-1-0.5c0,0,0,0,0,0C4.2,1,4,0.5,4,0H2c0,0.5-0.2,1-0.5,1.3c0,0,0,0,0,0C1,1.8,0.8,2.3,0.8,3S1,4.2,1.5,4.6 c0,0,0,0,0,0C1.8,5,2,5.5,2,6h2C4,5.5,4.2,5,4.6,4.6z"/></g>
<g transform="translate(651,837) scale(5.3216666666667)"><path d="M1.4,4.6C1.4,4.6,1.4,4.6,1.4,4.6c0.3,0.3,0.5,0.6,0.6,1C2,5.7,2,5.9,2,6h2c0-0.1,0-0.3,0-0.4 c0.1-0.4,0.3-0.7,0.5-1c0,0,0,0,0,0C5,4.2,5.5,4,6,4V2C5.5,2,5,1.8,4.7,1.5c0,0,0,0,0,0C4.2,1,3.7,0.8,3,0.8S1.8,1,1.4,1.5 c0,0,0,0,0,0C1,1.8,0.5,2,0,2v2C0.5,4,1,4.2,1.4,4.6z"/></g>
<g transform="translate(682,837) scale(5.3216666666667)"><path d="M4,0H2c0,1.1-0.9,2-2,2v2c1.1,0,2,0.9,2,2h2c0-1.1,0.9-2,2-2V2C4.9,2,4,1.1,4,0z"/></g>
<g transform="translate(713,837) scale(5.3216666666667)"><path d="M1.4,1.4C1.4,1.4,1.4,1.4,1.4,1.4C1.1,1.7,0.8,1.9,0.4,2C0.3,2,0.1,2,0,2v2c0.1,0,0.3,0,0.4,0 c0.4,0.1,0.7,0.3,1,0.5c0,0,0,0,0,0C1.8,5,2,5.5,2,6h2c0-0.5,0.2-1,0.5-1.3c0,0,0,0,0,0C5,4.2,5.2,3.7,5.2,3S5,1.8,4.5,1.4 c0,0,0,0,0,0C4.2,1,4,0.5,4,0H2C2,0.5,1.8,1,1.4,1.4z"/></g>
<g transform="translate(775,837) scale(5.3216666666667)"><path d="M4.3,5.7C5.3,5.2,6,4.2,6,3S5.3,0.8,4.3,0.3C4.1,0.2,4,0.1,4,0H2c0,0.1-0.1,0.2-0.3,0.3C0.7,0.8,0,1.8,0,3 s0.7,2.2,1.7,2.7C1.9,5.8,2,5.9,2,6h2C4,5.9,4.1,5.8,4.3,5.7z"/></g>
<g transform="translate(837,837) scale(5.3216666666667)"><path d="M4.6,4.6C4.6,4.6,4.6,4.6,4.6,4.6c0.3-0.3,0.6-0.5,1-0.6C5.7,4,5.9,4,6,4V2C5.9,2,5.7,2,5.6,2 c-0.4-0.1-0.7-0.3-1-0.5c0,0,0,0,0,0C4.2,1,4,0.5,4,0H2c0,0.5-0.2,1-0.5,1.3c0,0,0,0,0,0C1,1.8,0.8,2.3,0.8,3S1,4.2,1.5,4.6 c0,0,0,0,0,0C1.8,5,2,5.5,2,6h2C4,5.5,4.2,5,4.6,4.6z"/></g>
<g transform="translate(868,837) scale(5.3216666666667)"><path d="M1.4,1.4C1.4,1.4,1.4,1.4,1.4,1.4C1.1,1.7,0.8,1.9,0.4,2C0.3,2,0.1,2,0,2v2c0.1,0,0.3,0,0.4,0 c0.4,0.1,0.7,0.3,1,0.5c0,0,0,0,0,0C1.8,5,2,5.5,2,6h2c0-0.5,0.2-1,0.5-1.3c0,0,0,0,0,0C5,4.2,5.2,3.7,5.2,3S5,1.8,4.5,1.4 c0,0,0,0,0,0C4.2,1,4,0.5,4,0H2C2,0.5,1.8,1,1.4,1.4z"/></g>
<g transform="translate(310,868) scale(5.3216666666667)"><path d="M4.6,1.4C4.6,1.4,4.6,1.4,4.6,1.4C4.2,1,4,0.5,4,0H2c0,0.5-0.2,1-0.5,1.3l0,0C1,1.8,0.8,2.3,0.8,3 c0,1.2,1,2.2,2.2,2.2c0.6,0,1.1-0.2,1.5-0.6l0,0C4.9,4.2,5.4,4,6,4V2C5.5,2,5,1.8,4.6,1.4z"/></g>
<g transform="translate(341,868) scale(5.3216666666667)"><path d="M1.4,4.6C1.4,4.6,1.4,4.6,1.4,4.6C1.8,5,2,5.5,2,6h2c0-0.5,0.2-1,0.5-1.3l0,0C5,4.2,5.2,3.7,5.2,3 c0-1.2-1-2.2-2.2-2.2C2.4,0.8,1.9,1,1.5,1.4l0,0C1.1,1.8,0.6,2,0,2v2C0.5,4,1,4.2,1.4,4.6z"/></g>
<g transform="translate(403,868) scale(5.3216666666667)"><path d="M3,0.8c-1.2,0-2.2,1-2.2,2.2s1,2.2,2.2,2.2c0.6,0,1.2-0.3,1.6-0.7C5,4.2,5.5,4,6,4V2C5.5,2,5,1.8,4.6,1.4 C4.2,1,3.6,0.8,3,0.8z"/></g>
<g transform="translate(434,868) scale(5.3216666666667)"><path d="M1.4,1.4C1.4,1.4,1.4,1.4,1.4,1.4C1.1,1.7,0.8,1.9,0.4,2C0.3,2,0.1,2,0,2v2c0.1,0,0.3,0,0.4,0 c0.4,0.1,0.7,0.3,1,0.5c0,0,0,0,0,0C1.8,5,2,5.5,2,6h2c0-0.5,0.2-1,0.5-1.3c0,0,0,0,0,0C5,4.2,5.2,3.7,5.2,3S5,1.8,4.5,1.4 c0,0,0,0,0,0C4.2,1,4,0.5,4,0H2C2,0.5,1.8,1,1.4,1.4z"/></g>
<g transform="translate(496,868) scale(5.3216666666667)"><path d="M3,0.8c-1.2,0-2.2,1-2.2,2.2s1,2.2,2.2,2.2c0.6,0,1.2-0.3,1.6-0.7C5,4.2,5.5,4,6,4V2C5.5,2,5,1.8,4.6,1.4 C4.2,1,3.6,0.8,3,0.8z"/></g>
<g transform="translate(527,868) scale(5.3216666666667)"><path d="M4.6,1.4C4.6,1.4,4.6,1.4,4.6,1.4C4.3,1.1,4.1,0.8,4,0.4C4,0.3,4,0.1,4,0H2c0,0.1,0,0.3,0,0.4 c-0.1,0.4-0.3,0.7-0.5,1c0,0,0,0,0,0C1,1.8,0.5,2,0,2v2c0.5,0,1,0.2,1.3,0.5c0,0,0,0,0,0C1.8,5,2.3,5.2,3,5.2S4.2,5,4.6,4.5 c0,0,0,0,0,0C5,4.2,5.5,4,6,4V2C5.5,2,5,1.8,4.6,1.4z"/></g>
<g transform="translate(558,868) scale(5.3216666666667)"><path d="M1.4,1.4C1.4,1.4,1.4,1.4,1.4,1.4C1,1.8,0.5,2,0,2v2c0.5,0,1,0.2,1.3,0.5l0,0C1.8,5,2.3,5.2,3,5.2 c1.2,0,2.2-1,2.2-2.2c0-0.6-0.2-1.1-0.6-1.5l0,0C4.2,1.1,4,0.6,4,0H2C2,0.5,1.8,1,1.4,1.4z"/></g>
<g transform="translate(620,868) scale(5.3216666666667)"><path d="M4.6,4.6C4.6,4.6,4.6,4.6,4.6,4.6c0.3-0.3,0.6-0.5,1-0.6C5.7,4,5.9,4,6,4V2C5.9,2,5.7,2,5.6,2 c-0.4-0.1-0.7-0.3-1-0.5c0,0,0,0,0,0C4.2,1,4,0.5,4,0H2c0,0.5-0.2,1-0.5,1.3c0,0,0,0,0,0C1,1.8,0.8,2.3,0.8,3S1,4.2,1.5,4.6 c0,0,0,0,0,0C1.8,5,2,5.5,2,6h2C4,5.5,4.2,5,4.6,4.6z"/></g>
<g transform="translate(651,868) scale(5.3216666666667)"><path d="M4,0H2c0,1.1-0.9,2-2,2v2c1.1,0,2,0.9,2,2h2c0-1.1,0.9-2,2-2V2C4.9,2,4,1.1,4,0z"/></g>
<g transform="translate(682,868) scale(5.3216666666667)"><path d="M4,0H2c0,1.1-0.9,2-2,2v2c1.1,0,2,0.9,2,2h2c0-1.1,0.9-2,2-2V2C4.9,2,4,1.1,4,0z"/></g>
<g transform="translate(713,868) scale(5.3216666666667)"><path d="M4,0H2c0,1.1-0.9,2-2,2v2c1.1,0,2,0.9,2,2h2c0-1.1,0.9-2,2-2V2C4.9,2,4,1.1,4,0z"/></g>
<g transform="translate(744,868) scale(5.3216666666667)"><path d="M1.4,4.6C1.4,4.6,1.4,4.6,1.4,4.6c0.3,0.3,0.5,0.6,0.6,1C2,5.7,2,5.9,2,6h2c0-0.1,0-0.3,0-0.4 c0.1-0.4,0.3-0.7,0.5-1c0,0,0,0,0,0C5,4.2,5.5,4,6,4V2C5.5,2,5,1.8,4.7,1.5c0,0,0,0,0,0C4.2,1,3.7,0.8,3,0.8S1.8,1,1.4,1.5 c0,0,0,0,0,0C1,1.8,0.5,2,0,2v2C0.5,4,1,4.2,1.4,4.6z"/></g>
<g transform="translate(775,868) scale(5.3216666666667)"><path d="M4.6,1.4C4.6,1.4,4.6,1.4,4.6,1.4C4.3,1.1,4.1,0.8,4,0.4C4,0.3,4,0.1,4,0H2c0,0.1,0,0.3,0,0.4 c-0.1,0.4-0.3,0.7-0.5,1c0,0,0,0,0,0C1,1.8,0.5,2,0,2v2c0.5,0,1,0.2,1.3,0.5c0,0,0,0,0,0C1.8,5,2.3,5.2,3,5.2S4.2,5,4.6,4.5 c0,0,0,0,0,0C5,4.2,5.5,4,6,4V2C5.5,2,5,1.8,4.6,1.4z"/></g>
<g transform="translate(806,868) scale(5.3216666666667)"><path d="M1.4,4.6C1.4,4.6,1.4,4.6,1.4,4.6c0.3,0.3,0.5,0.6,0.6,1C2,5.7,2,5.9,2,6h2c0-0.1,0-0.3,0-0.4 c0.1-0.4,0.3-0.7,0.5-1c0,0,0,0,0,0C5,4.2,5.5,4,6,4V2C5.5,2,5,1.8,4.7,1.5c0,0,0,0,0,0C4.2,1,3.7,0.8,3,0.8S1.8,1,1.4,1.5 c0,0,0,0,0,0C1,1.8,0.5,2,0,2v2C0.5,4,1,4.2,1.4,4.6z"/></g>
<g transform="translate(837,868) scale(5.3216666666667)"><path d="M4,0H2c0,1.1-0.9,2-2,2v2c1.1,0,2,0.9,2,2h2c0-1.1,0.9-2,2-2V2C4.9,2,4,1.1,4,0z"/></g>
<g transform="translate(868,868) scale(5.3216666666667)"><path d="M4.6,1.4C4.6,1.4,4.6,1.4,4.6,1.4C4.3,1.1,4.1,0.8,4,0.4C4,0.3,4,0.1,4,0H2c0,0.1,0,0.3,0,0.4 c-0.1,0.4-0.3,0.7-0.5,1c0,0,0,0,0,0C1,1.8,0.5,2,0,2v2c0.5,0,1,0.2,1.3,0.5c0,0,0,0,0,0C1.8,5,2.3,5.2,3,5.2S4.2,5,4.6,4.5 c0,0,0,0,0,0C5,4.2,5.5,4,6,4V2C5.5,2,5,1.8,4.6,1.4z"/></g>
<g transform="translate(899,868) scale(5.3216666666667)"><path d="M1.4,4.6C1.4,4.6,1.4,4.6,1.4,4.6C1.8,5,2,5.5,2,6h2c0-0.5,0.2-1,0.5-1.3l0,0C5,4.2,5.2,3.7,5.2,3 c0-1.2-1-2.2-2.2-2.2C2.4,0.8,1.9,1,1.5,1.4l0,0C1.1,1.8,0.6,2,0,2v2C0.5,4,1,4.2,1.4,4.6z"/></g>
<g transform="translate(341,899) scale(5.3216666666667)"><path d="M4.6,1.4C4.6,1.4,4.6,1.4,4.6,1.4C4.2,1,4,0.5,4,0H2c0,0.5-0.2,1-0.5,1.3l0,0C1,1.8,0.8,2.3,0.8,3 c0,1.2,1,2.2,2.2,2.2c0.6,0,1.1-0.2,1.5-0.6l0,0C4.9,4.2,5.4,4,6,4V2C5.5,2,5,1.8,4.6,1.4z"/></g>
<g transform="translate(372,899) scale(5.3216666666667)"><path d="M3,5.2c1.2,0,2.2-1,2.2-2.2S4.2,0.8,3,0.8C2.4,0.8,1.8,1,1.4,1.4C1,1.8,0.5,2,0,2v2c0.5,0,1,0.2,1.4,0.6 C1.8,5,2.4,5.2,3,5.2z"/></g>
<g transform="translate(434,899) scale(5.3216666666667)"><path d="M4.6,1.4C4.6,1.4,4.6,1.4,4.6,1.4C4.2,1,4,0.5,4,0H2c0,0.5-0.2,1-0.5,1.3l0,0C1,1.8,0.8,2.3,0.8,3 c0,1.2,1,2.2,2.2,2.2c0.6,0,1.1-0.2,1.5-0.6l0,0C4.9,4.2,5.4,4,6,4V2C5.5,2,5,1.8,4.6,1.4z"/></g>
<g transform="translate(465,899) scale(5.3216666666667)"><path d="M3,5.2c1.2,0,2.2-1,2.2-2.2S4.2,0.8,3,0.8C2.4,0.8,1.8,1,1.4,1.4C1,1.8,0.5,2,0,2v2c0.5,0,1,0.2,1.4,0.6 C1.8,5,2.4,5.2,3,5.2z"/></g>
<g transform="translate(589,899) scale(5.3216666666667)"><path d="M4.6,4.6C4.6,4.6,4.6,4.6,4.6,4.6C5,4.2,5.5,4,6,4V2C5.5,2,5,1.8,4.7,1.5l0,0C4.2,1,3.7,0.8,3,0.8 c-1.2,0-2.2,1-2.2,2.2c0,0.6,0.2,1.1,0.6,1.5l0,0C1.8,4.9,2,5.4,2,6h2C4,5.5,4.2,5,4.6,4.6z"/></g>
<g transform="translate(620,899) scale(5.3216666666667)"><path d="M4.6,1.4C4.6,1.4,4.6,1.4,4.6,1.4C4.3,1.1,4.1,0.8,4,0.4C4,0.3,4,0.1,4,0H2c0,0.1,0,0.3,0,0.4 c-0.1,0.4-0.3,0.7-0.5,1c0,0,0,0,0,0C1,1.8,0.5,2,0,2v2c0.5,0,1,0.2,1.3,0.5c0,0,0,0,0,0C1.8,5,2.3,5.2,3,5.2S4.2,5,4.6,4.5 c0,0,0,0,0,0C5,4.2,5.5,4,6,4V2C5.5,2,5,1.8,4.6,1.4z"/></g>
<g transform="translate(651,899) scale(5.3216666666667)"><path d="M4,0H2c0,1.1-0.9,2-2,2v2c1.1,0,2,0.9,2,2h2c0-1.1,0.9-2,2-2V2C4.9,2,4,1.1,4,0z"/></g>
<g transform="translate(682,899) scale(5.3216666666667)"><path d="M4.6,1.4C4.6,1.4,4.6,1.4,4.6,1.4C4.3,1.1,4.1,0.8,4,0.4C4,0.3,4,0.1,4,0H2c0,0.1,0,0.3,0,0.4 c-0.1,0.4-0.3,0.7-0.5,1c0,0,0,0,0,0C1,1.8,0.5,2,0,2v2c0.5,0,1,0.2,1.3,0.5c0,0,0,0,0,0C1.8,5,2.3,5.2,3,5.2S4.2,5,4.6,4.5 c0,0,0,0,0,0C5,4.2,5.5,4,6,4V2C5.5,2,5,1.8,4.6,1.4z"/></g>
<g transform="translate(713,899) scale(5.3216666666667)"><path d="M4,0H2c0,1.1-0.9,2-2,2v2c1.1,0,2,0.9,2,2h2c0-1.1,0.9-2,2-2V2C4.9,2,4,1.1,4,0z"/></g>
<g transform="translate(744,899) scale(5.3216666666667)"><path d="M1.4,1.4C1.4,1.4,1.4,1.4,1.4,1.4C1,1.8,0.5,2,0,2v2c0.5,0,1,0.2,1.3,0.5l0,0C1.8,5,2.3,5.2,3,5.2 c1.2,0,2.2-1,2.2-2.2c0-0.6-0.2-1.1-0.6-1.5l0,0C4.2,1.1,4,0.6,4,0H2C2,0.5,1.8,1,1.4,1.4z"/></g>
<g transform="translate(806,899) scale(5.3216666666667)"><path d="M4.6,4.6C4.6,4.6,4.6,4.6,4.6,4.6c0.3-0.3,0.6-0.5,1-0.6C5.7,4,5.9,4,6,4V2C5.9,2,5.7,2,5.6,2 c-0.4-0.1-0.7-0.3-1-0.5c0,0,0,0,0,0C4.2,1,4,0.5,4,0H2c0,0.5-0.2,1-0.5,1.3c0,0,0,0,0,0C1,1.8,0.8,2.3,0.8,3S1,4.2,1.5,4.6 c0,0,0,0,0,0C1.8,5,2,5.5,2,6h2C4,5.5,4.2,5,4.6,4.6z"/></g>
<g transform="translate(837,899) scale(5.3216666666667)"><path d="M1.4,1.4C1.4,1.4,1.4,1.4,1.4,1.4C1,1.8,0.5,2,0,2v2c0.5,0,1,0.2,1.3,0.5l0,0C1.8,5,2.3,5.2,3,5.2 c1.2,0,2.2-1,2.2-2.2c0-0.6-0.2-1.1-0.6-1.5l0,0C4.2,1.1,4,0.6,4,0H2C2,0.5,1.8,1,1.4,1.4z"/></g>
<g transform="translate(899,899) scale(5.3216666666667)"><path d="M0.8,3c0,1.2,1,2.2,2.2,2.2s2.2-1,2.2-2.2c0-0.6-0.3-1.2-0.7-1.6C4.2,1,4,0.5,4,0H2c0,0.5-0.2,1-0.6,1.4 C1,1.8,0.8,2.4,0.8,3z"/></g>
<g transform="translate(496,930) scale(5.3216666666667)"><circle cx="3" cy="3" r="3"/></g>
<g transform="translate(558,930) scale(5.3216666666667)"><path d="M3,0.8c-1.2,0-2.2,1-2.2,2.2s1,2.2,2.2,2.2c0.6,0,1.2-0.3,1.6-0.7C5,4.2,5.5,4,6,4V2C5.5,2,5,1.8,4.6,1.4 C4.2,1,3.6,0.8,3,0.8z"/></g>
<g transform="translate(589,930) scale(5.3216666666667)"><path d="M1.4,1.4C1.4,1.4,1.4,1.4,1.4,1.4C1,1.8,0.5,2,0,2v2c0.5,0,1,0.2,1.3,0.5l0,0C1.8,5,2.3,5.2,3,5.2 c1.2,0,2.2-1,2.2-2.2c0-0.6-0.2-1.1-0.6-1.5l0,0C4.2,1.1,4,0.6,4,0H2C2,0.5,1.8,1,1.4,1.4z"/></g>
<g transform="translate(651,930) scale(5.3216666666667)"><path d="M0.8,3c0,1.2,1,2.2,2.2,2.2s2.2-1,2.2-2.2c0-0.6-0.3-1.2-0.7-1.6C4.2,1,4,0.5,4,0H2c0,0.5-0.2,1-0.6,1.4 C1,1.8,0.8,2.4,0.8,3z"/></g>
<g transform="translate(713,930) scale(5.3216666666667)"><path d="M0.8,3c0,1.2,1,2.2,2.2,2.2s2.2-1,2.2-2.2c0-0.6-0.3-1.2-0.7-1.6C4.2,1,4,0.5,4,0H2c0,0.5-0.2,1-0.6,1.4 C1,1.8,0.8,2.4,0.8,3z"/></g>
<g transform="translate(806,930) scale(5.3216666666667)"><path d="M0.8,3c0,1.2,1,2.2,2.2,2.2s2.2-1,2.2-2.2c0-0.6-0.3-1.2-0.7-1.6C4.2,1,4,0.5,4,0H2c0,0.5-0.2,1-0.6,1.4 C1,1.8,0.8,2.4,0.8,3z"/></g>
</g></g></mask></defs>
<rect width="1023" height="1023" fill="#ffffff" x="0" y="0" />
<rect x="0" y="0" width="1023" height="1023" mask="url(#qrmask)" fill="#000000" />
<g><g transform="translate(62,62)"  fill="#000000"><g transform="scale(15.5)"><path d="M0,0l0,7c0,3.9,3.1,7,7,7h0c3.9,0,7-3.1,7-7v0c0-3.9-3.1-7-7-7H0z M7,12L7,12c-2.8,0-5-2.2-5-5V2h5c2.8,0,5,2.2,5,5v0 C12,9.8,9.8,12,7,12z"/></g></g>
<g transform="translate(124,124)"  fill="#000000"><g transform="scale(15.5)"><path d="M3,6L3,6C1.3,6,0,4.7,0,3l0-3l3,0c1.7,0,3,1.3,3,3v0C6,4.7,4.7,6,3,6z"/></g></g>
<g transform="translate(744,62)"  fill="#000000"><g transform="scale(15.5) rotate(90 7 7)"><path d="M0,0l0,7c0,3.9,3.1,7,7,7h0c3.9,0,7-3.1,7-7v0c0-3.9-3.1-7-7-7H0z M7,12L7,12c-2.8,0-5-2.2-5-5V2h5c2.8,0,5,2.2,5,5v0 C12,9.8,9.8,12,7,12z"/></g></g>
<g transform="translate(806,124)"  fill="#000000"><g transform="scale(15.5) rotate(90 3 3)"><path d="M3,6L3,6C1.3,6,0,4.7,0,3l0-3l3,0c1.7,0,3,1.3,3,3v0C6,4.7,4.7,6,3,6z"/></g></g>
<g transform="translate(62,744)"  fill="#000000"><g transform="scale(15.5) rotate(-90 7 7)"><path d="M0,0l0,7c0,3.9,3.1,7,7,7h0c3.9,0,7-3.1,7-7v0c0-3.9-3.1-7-7-7H0z M7,12L7,12c-2.8,0-5-2.2-5-5V2h5c2.8,0,5,2.2,5,5v0 C12,9.8,9.8,12,7,12z"/></g></g>
<g transform="translate(124,806)"  fill="#000000"><g transform="scale(15.5) rotate(-90 3 3)"><path d="M3,6L3,6C1.3,6,0,4.7,0,3l0-3l3,0c1.7,0,3,1.3,3,3v0C6,4.7,4.7,6,3,6z"/></g></g></g>
</svg>